<?xml version="1.0" encoding="utf-8"?>
<!-- Generator: Adobe Illustrator 23.0.0, SVG Export Plug-In . SVG Version: 6.00 Build 0)  -->
<svg version="1.1" id="Layer_1" xmlns="http://www.w3.org/2000/svg" xmlns:xlink="http://www.w3.org/1999/xlink" x="0px" y="0px"
	 viewBox="0 0 2353 2500" style="enable-background:new 0 0 2353 2500;" xml:space="preserve">
<style type="text/css">
	.st0{fill:#FFFFFF;}
	.st1{fill:#DCDDDE;}
</style>
<g>
	<polygon class="st0" points="946.7,1319.3 1404.5,1319.3 1160.9,810.3 1160.9,810.3 	"/>
	<path class="st0" d="M1157.3,6.4L0.9,418.4l176.7,1529.9l979.6,543.8l995.2-551.2l192.3-1529.9L1157.3,6.4z M1657.2,1899.8
		l-158.4-366.2H852.4l-144.7,361.6l-269.2,4.6l720.5-1603.1l0,0l0,0l0,0l755.3,1607.7L1657.2,1899.8z"/>
</g>
<g>
	<polygon class="st1" points="1157.3,300.7 1159.1,296.6 1159.1,296.6 1159.1,296.6 1159.1,296.6 1914.4,1904.3 1657.2,1899.8 
		1498.8,1533.5 1157.3,1533.5 1157.3,2492.1 2152.5,1941.9 2344.7,411.1 1157.3,6.4 	"/>
	<polygon class="st1" points="2344.7,411.1 2344.7,411.1 2344.7,411.1 	"/>
	<polygon class="st1" points="1160.9,810.3 1160.9,810.3 1157.3,819 1157.3,1319.3 1404.5,1319.3 	"/>
</g>
</svg>
