<?xml version="1.0" encoding="utf-8"?>
<!-- Generator: Adobe Illustrator 23.0.0, SVG Export Plug-In . SVG Version: 6.00 Build 0)  -->
<svg version="1.1" id="Layer_1" xmlns="http://www.w3.org/2000/svg" xmlns:xlink="http://www.w3.org/1999/xlink" x="0px" y="0px"
	 viewBox="0 0 2469 2500" style="enable-background:new 0 0 2469 2500;" xml:space="preserve">
<style type="text/css">
	.st0{fill:#E2B900;}
	.st1{fill:#004B95;}
	.st2{fill:#A4234B;}
	.st3{fill:#FFFFFF;}
	.st4{fill:#DB2F36;}
	.st5{fill:#FFDF00;}
</style>
<path d="M1564.9,87C1456,162.6,1351,197.8,1234.5,197.8C1118,197.8,1013,162.6,904.1,87l-28.4-19.7l-28.8,19.1
	c-123.1,81.5-223.1,96.4-375.7,96.4c-52.6,0-109.2-9.9-163.6-28.7l-36.2-12.5l-22,31.4c-11.7,16.7-20.4,27.3-28.9,37.5
	c-10.4,12.6-20.2,24.5-31.7,43l-18.4,29.6l21,27.9c93.3,123.9,128.5,251.5,128.5,371.5c0,223.8-122.4,421.6-218.8,521.7l-34.7,36
	l35.4,35.4c19,19,52.9,54.1,80.8,83.5l-1.1,15.4l-0.2,2.8c-1.1,21.4-1.7,42.8-1.7,64.2c0,227.3,67.2,416.3,200.2,562.5
	c153.9,169.3,394.7,270.3,679.2,286c70.6,64.3,142.4,117.7,145.7,120.1l30.4,22.6l30.4-22.6c3.2-2.4,74.6-55.8,145.2-120.1
	c284.5-15.7,525.2-116.8,679.1-286c133-146.2,200.2-335.2,200.2-562.5c0-21.1-0.6-42.5-1.7-64.2l0-0.5l-0.3-2.8c0,0-1-13.8-1.1-14.9
	c25.9-27.2,60.9-63.6,80.8-83.5l35.4-35.4l-34.7-36c-96.4-100-218.8-297.8-218.8-521.7c0-120,35.2-247.5,128.4-371.5l21-27.9
	l-18.4-29.6c-11.5-18.5-21.3-30.4-31.7-43.1c-8.4-10.2-17.1-20.8-28.8-37.5l-22-31.4l-36.2,12.5c-54.4,18.8-111,28.7-163.6,28.7
	c-152.6,0-252.6-14.9-375.7-96.4l-28.8-19.1L1564.9,87z"/>
<path class="st0" d="M1234.7,2369.3c0,0-81.3-60.3-154.8-128.9C599.3,2220.4,201.6,1950.9,232,1380c1.8-15.1,0.3-14,2.9-39.7
	c-27.6-29.2-73.2-76.7-97.2-100.8C310,1060.6,511.2,651.4,232,280.4c18.4-29.5,31.6-39.3,59-78.2c55.8,19.3,117.9,31.5,180.2,31.5
	c160.1,0,269.4-15.9,403.9-104.9c106.3,73.8,221.5,119.9,359.5,119.9c138,0,253.2-46.2,359.5-119.9
	c134.4,89,243.7,104.9,403.9,104.9c62.3,0,124.4-12.2,180.2-31.5c27.3,38.9,40.6,48.7,59,78.2c-279.2,371-78,780.2,94.3,959.1
	c-24.1,24-69.7,71.6-97.2,100.8c2.6,25.7,1.1,24.7,2.9,39.7c30.4,570.9-367.3,840.4-847.9,860.3
	C1315.6,2308.9,1234.7,2369.3,1234.7,2369.3L1234.7,2369.3z"/>
<path d="M323.2,1345.9h-6.8l-2.9,24.6l-2.1,15.8c-11.2,219.9,43.6,397.6,162.9,528.4c136.9,150.1,358.6,235.6,641.2,247.4
	c0.3,0,4.7,0,4.7,0c84.8,0.5,164.9,0.9,233,0c282.8-11.7,504.5-97.2,641.4-247.4c119.3-130.9,174.1-308.5,163-528
	c0-0.4-2.1-16.3-2.1-16.3l-2.9-24.2l-6.8-0.3L323.2,1345.9L323.2,1345.9z"/>
<path class="st1" d="M330,1361.2l-1.4,11.7c0,0-1.9,14.6-2,14.6c-0.9,18-1.4,36-1.4,54.1c0,190.5,53.8,346,160.4,462.9
	c25.5,27.9,54,53.6,85.3,76.9v-620.1H330z M2142.4,1387.9l-2-15.1l-1.4-11.6h-241v620.1c31.4-23.3,59.9-48.9,85.3-76.9
	c106.6-116.9,160.4-272.4,160.4-462.7C2143.8,1424.1,2143.3,1406.2,2142.4,1387.9z"/>
<path class="st2" d="M836.4,1361.2H571v620.1c73.4,54.6,162.6,96.3,265.4,124.3V1361.2z M1632.6,1361.2v744.5
	c102.8-28.1,192-69.8,265.4-124.3v-620.1H1632.6z"/>
<path class="st1" d="M980.1,1743.2c0-91.9,48.7-172.4,121.7-217.1v-164.9H836.4v744.5c80.5,22,169.3,35.6,265.4,40.5v-185.9
	C1028.8,1915.5,980.1,1835,980.1,1743.2z M1367.2,1361.2v164.9c73,44.7,121.7,125.2,121.7,217.1s-48.7,172.4-121.7,217.1v185.9
	c96.2-4.9,185-18.5,265.4-40.5v-744.4H1367.2z"/>
<path class="st2" d="M1367.2,1526.1v-164.9h-265.4v164.9c38.6-23.7,84.1-37.3,132.7-37.3C1283.1,1488.8,1328.6,1502.4,1367.2,1526.1
	L1367.2,1526.1z M1101.8,1960.3v185.9c4.7,0.2,9.3,0.5,14.1,0.7l4.5,0c84.7,0.5,164.7,0.9,232.5,0c4.8-0.2,9.6-0.5,14.4-0.7v-185.9
	c-38.6,23.7-84.1,37.3-132.7,37.3C1185.9,1997.6,1140.4,1983.9,1101.8,1960.3z"/>
<path class="st0" d="M1104.7,1789.3c-46-41.9-46.2-127.1-33.8-183.7c3.4-15.8,7.8-31.2,12.2-48.8c-54.1,44-88.7,111.2-88.7,186.4
	c0,30.9,5.9,61.4,17.4,90c4.1,0.5,8.2,0.8,12.5,0.8C1059.9,1834,1088.9,1817.6,1104.7,1789.3L1104.7,1789.3z M1351.9,1807.7
	c-7.9,40.2-50.9,70.4-91.5,94.6c-41.8,24.9-109.2,37.8-159.9,40.2c38.3,25.8,84.4,40.8,134,40.8c90.6,0,169.4-50.1,210.3-124.1
	C1437.6,1799.9,1381.3,1792.9,1351.9,1807.7L1351.9,1807.7z"/>
<path class="st0" d="M1081.9,1928.5c50.1,0.4,127.1-12.2,171.2-38.5c57-34,101.4-70.3,80.3-120.7c-10.6-25.4-46-54.9-91.9-22.4
	c-2.9,37.6-49.3,70.7-82.6,66.5c-16.9-2.2-31-7.5-42.8-15.2c-18.7,32-52.2,50.1-91.8,50.1c-1.9,0-3.9-0.1-5.8-0.2
	C1033.6,1879.2,1055.2,1906.6,1081.9,1928.5L1081.9,1928.5z M1233.9,1593.5c39.7-16.5,94.8,4.9,136.7,28.4
	c39.6,22.1,80.9,63.4,103.6,106.8c-7.5-125.2-110.8-224.5-237.6-225.6C1198.7,1527.9,1203.9,1574.8,1233.9,1593.5z"/>
<path class="st0" d="M1227.2,1746.7c-49.2-35.9-46.1-92.3-25-125.8c5.2-8.2,11.2-14.7,17.9-19.6c-28.6-22.8-34.3-67.1-6.6-97.3
	c-40.2,3.5-78.9,17.1-112.5,39.6c-10.5,45.1-23.8,86.3-23.2,133.4c0.9,63.5,27.2,115.1,82.8,122.3
	C1186.7,1802.5,1224.2,1774.9,1227.2,1746.7L1227.2,1746.7z"/>
<path class="st0" d="M1473.6,1765.2c-13.7-49.7-63-104.6-110-130.9c-58-32.4-121.5-50-149.4-5.8c-17.9,28.4-20.4,75.3,20.2,105.8
	c55.2-38.1,99.3-1.1,112.1,29.4c4.1,9.8,6.2,19.1,6.5,27.9c32.6-11.5,85.6-4.1,101.9,46.8C1465,1815.2,1471.3,1790.5,1473.6,1765.2
	L1473.6,1765.2z"/>
<path d="M1015.6,1069.1H847.8v236h51.1v-97.4h69.6v-49.8h-69.6v-38.6h119.2v-50.2L1015.6,1069.1z M1113.2,1187.1
	c0,73.9,40.6,121.6,103.5,121.6c41,0,70.5-18,87.7-53.5l1-2l-43-25.5l-1.3,2.1c-12.3,20.5-23.9,28.2-43.1,28.2
	c-31.3,0-52.3-28.5-52.3-70.8c0-43.7,19.9-70.8,52-70.8c18.6,0,31.7,7.8,40.1,23.8l1.1,2.1l47.3-21.8l-1.1-2.3
	c-16.6-34.4-46.6-52.6-86.7-52.6C1156.5,1065.5,1113.2,1115.5,1113.2,1187.1L1113.2,1187.1z M1590.7,1177.3
	c14.3-10.1,22.7-26,22.7-44.7c0-39.8-28.3-63.5-75.8-63.5h-108.4v236h107.4c53,0,84.7-28.8,84.7-77.1
	C1621.2,1205.5,1610,1187.4,1590.7,1177.3L1590.7,1177.3z M1479.3,1116.6h56.3c23,0,25.9,10.5,25.9,19.6c0,13-7.7,19.3-23.6,19.3
	h-58.6L1479.3,1116.6z M1538.2,1256.3h-58.9v-54.8h58.9c20.8,0,30.6,8.7,30.6,27.2C1568.8,1246.8,1558.2,1256.3,1538.2,1256.3z
	 M1591.3,225.4c-114.3,69.2-231.1,102.8-356.9,102.9c-125.8-0.1-242.5-33.8-356.8-102.9l-3.8-2.3l-3.9,2.2
	c-130.3,73.6-244.9,88-398.8,88c-37,0-75.2-3.7-113.4-11l-16.5-3.2l8.5,14.5c158.2,270.6,102,532.3,27.1,704.1l-4.7,10.7h1724.8
	l-4.7-10.7c-74.9-171.8-131.1-433.5,27.1-704.1l8.5-14.5l-16.5,3.2c-38.3,7.3-76.5,11-113.4,11c-153.9,0-268.5-14.4-398.8-88
	l-3.9-2.2L1591.3,225.4L1591.3,225.4z"/>
<path class="st3" d="M705.5,306.8c-72.2,17.1-147.1,21.8-234.3,21.8c-33,0-66.9-3.4-101-9.1c40.4,72.3,66.1,143.8,80.7,213.1h254.6
	L705.5,306.8L705.5,306.8z M1226.9,532.5V343.5c-91.3-1-178-19.6-262.5-56.2v245.2H1226.9z M458.1,791.4c-12,82.9-36,158-63,221.7
	h310.3V791.4L458.1,791.4L458.1,791.4z M964.4,1013.2h262.5V791.4H964.4V1013.2L964.4,1013.2z"/>
<path class="st4" d="M964.4,532.5V287.3c-30.5-13.2-60.8-28.7-90.8-46.7c-57.5,32-112,52.9-168.1,66.2v225.7H450.9
	c10.2,48.6,15.4,98.2,15.4,147.9c0,38.2-3,75.3-8.2,111h247.4v221.7h258.9V791.4h262.5V532.5L964.4,532.5z"/>
<path class="st5" d="M1595.4,240.6l-0.4,0.2v772.3h91V283C1656.3,271.7,1626.3,257.8,1595.4,240.6L1595.4,240.6z M1413.1,319.6
	v693.6h91V287.6C1474.5,300.4,1444.1,311.1,1413.1,319.6z M1242.1,343.5v669.7h79.9V337.9C1295.5,341.3,1268.9,343.2,1242.1,343.5z
	 M1777.1,309.8v703.4h91V323.4C1836.8,320.5,1806.7,316.1,1777.1,309.8L1777.1,309.8z M2002.7,680.5c0-113,26.1-235.9,96.1-361
	c-34.1,5.7-68,9.1-101,9.1c-13.2,0-26-0.2-38.7-0.4v685h114.7C2035.3,922,2002.7,807.6,2002.7,680.5L2002.7,680.5z"/>
<path class="st4" d="M1868.1,323.4v689.7h91v-685C1927.4,327.6,1897.2,326.1,1868.1,323.4z M1322,337.9v675.3h91V319.6
	C1383.2,327.8,1352.8,333.9,1322,337.9z M1504.1,287.6v725.6h91V240.8C1565,258.8,1534.7,274.4,1504.1,287.6z M1686.1,283v730.2h91
	V309.8C1746.1,303.2,1715.7,294.2,1686.1,283z"/>
</svg>
