<?xml version="1.0" encoding="iso-8859-1"?>
<!-- Generator: Adobe Illustrator 19.0.0, SVG Export Plug-In . SVG Version: 6.00 Build 0)  -->
<svg version="1.1" id="Capa_1" xmlns="http://www.w3.org/2000/svg" xmlns:xlink="http://www.w3.org/1999/xlink" x="0px" y="0px"
	 viewBox="0 0 341.333 341.333" style="enable-background:new 0 0 341.333 341.333;" xml:space="preserve">
<g>
	<g>
		<g>
			<path d="M128,85.333c23.573,0,42.667-19.093,42.667-42.667C170.667,19.093,151.573,0,128,0
				c-23.573,0-42.667,19.093-42.667,42.667C85.333,66.24,104.427,85.333,128,85.333z"/>
			<path d="M213.333,170.667C236.907,170.667,256,151.573,256,128c0-23.573-19.093-42.667-42.667-42.667
				c-23.573,0-42.667,19.093-42.667,42.667C170.667,151.573,189.76,170.667,213.333,170.667z"/>
			<path d="M42.667,170.667c23.573,0,42.667-19.093,42.667-42.667c0-23.573-19.093-42.667-42.667-42.667
				C19.093,85.333,0,104.427,0,128C0,151.573,19.093,170.667,42.667,170.667z"/>
			<path d="M298.667,85.333c23.573,0,42.667-19.093,42.667-42.667C341.333,19.093,322.24,0,298.667,0
				C275.093,0,256,19.093,256,42.667C256,66.24,275.093,85.333,298.667,85.333z"/>
			<path d="M213.333,256c-23.573,0-42.667,19.093-42.667,42.667c0,23.573,19.093,42.667,42.667,42.667
				c23.573,0,42.667-19.093,42.667-42.667C256,275.093,236.907,256,213.333,256z"/>
			<path d="M298.667,170.667c-23.573,0-42.667,19.093-42.667,42.667C256,236.907,275.093,256,298.667,256
				c23.573,0,42.667-19.093,42.667-42.667C341.333,189.76,322.24,170.667,298.667,170.667z"/>
			<path d="M128,170.667c-23.573,0-42.667,19.093-42.667,42.667C85.333,236.907,104.427,256,128,256
				c23.573,0,42.667-19.093,42.667-42.667C170.667,189.76,151.573,170.667,128,170.667z"/>
			<path d="M42.667,256C19.093,256,0,275.093,0,298.667c0,23.573,19.093,42.667,42.667,42.667c23.573,0,42.667-19.093,42.667-42.667
				C85.333,275.093,66.24,256,42.667,256z"/>
		</g>
	</g>
</g>
<g>
</g>
<g>
</g>
<g>
</g>
<g>
</g>
<g>
</g>
<g>
</g>
<g>
</g>
<g>
</g>
<g>
</g>
<g>
</g>
<g>
</g>
<g>
</g>
<g>
</g>
<g>
</g>
<g>
</g>
</svg>
