<?xml version="1.0" encoding="utf-8"?>
<!-- Generator: Adobe Illustrator 23.0.0, SVG Export Plug-In . SVG Version: 6.00 Build 0)  -->
<svg version="1.1" id="Layer_1" xmlns="http://www.w3.org/2000/svg" xmlns:xlink="http://www.w3.org/1999/xlink" x="0px" y="0px"
	 viewBox="0 0 2500 2500" style="enable-background:new 0 0 2500 2500;" xml:space="preserve">
<style type="text/css">
	.st0{fill-rule:evenodd;clip-rule:evenodd;}
	.st1{fill-rule:evenodd;clip-rule:evenodd;fill:#EFC460;}
	.st2{fill-rule:evenodd;clip-rule:evenodd;fill:#FFFFFF;}
	.st3{fill-rule:evenodd;clip-rule:evenodd;fill:#CE3829;}
	.st4{fill-rule:evenodd;clip-rule:evenodd;fill:#1E7E62;}
	.st5{fill-rule:evenodd;clip-rule:evenodd;fill:#2B3E8A;}
</style>
<g>
	<path class="st0" d="M1258.1,26.3l25.8,0.5c1.5,9.6,0,19.2,0.5,29.3l-25.3,0.5c-3,9.1-1,19.7-1,29.3c12.6,4,25.3,9.1,34.9,20.2
		c16.7-2.5,31.8,6.1,40,21.2c7.6-11.1,20.2-18.7,34.4-18.7c12.7,1,24.8,6.6,31.9,18.2c2.5,5.6,4.5,11.1,6.1,17.7
		c9.7-8.5,23.1-11.4,35.4-7.6c9.6,3.5,21.2,11.6,24.8,22.8c2,5.6,1,11.1,2.5,17.2c12.1-4.5,27.8-5.1,40,3.5
		c12.1,10.1,17.7,27.3,13.1,43.5l1,1c14.7-2.5,28.3,4.6,37.4,16.7l1,0.5c7.6-15.2,23.8-23.2,40.9-20.7c10.1,2.5,22.2,7.6,27.3,18.7
		l4.5,11.1c12.1-8.6,32.4-8.6,45.5,1c10.6,9.1,16.2,21.7,14.6,36.4c11.7-5.1,25.8-7.1,38.4,0.5c11.4,7.3,18.4,19.8,18.7,33.4
		l-1.5,17.2c11.1-4,24.3-1,34.4,7.1c8.6,9.1,14.2,21.2,12.6,34.9c-1,6.1-4.5,11.1-6.1,16.7c12.1,0.5,23.2,8.1,30.3,19.7
		c5.1,9.6,5.6,24.3-0.5,34.9l-9.6,12.6c3,2,8.1,3,12.6,5.5c10.6,7.6,17.2,19.2,18.7,32.4c0.5,7.6-4,13.6-4.5,20.7
		c10.1,6.1,17.7,18.2,18.7,30.3c-0.5,7.6-3.5,14.2-6.6,20.7c8.6,15.7,9.6,40.4-2,55.1c-15.7,16.9-39.9,22.8-61.7,15.2
		c-19.2,19.2-46,28.3-71.3,24.3c-2.5,6.6-5.1,14.2-11.6,18.2c-6.1,2.5-12.6,3.5-18.2,2c-37.9-16.7-75.3-33.4-113.7-44.5
		c-109.7-40.4-230-62.2-348.8-59.1c-5.1,0.5-11.1,0.5-16.7,1.5c-135,8.1-258.8,44-378.1,94.5c-16.2,3.5-34.9,22.3-50,4.6
		c-2.9-4.4-4.6-9.4-5.1-14.7c-24.3,2-46-3-64.2-18.7c-20.2,4.1-44.5-1-58.1-19.2c-10.1-13.1-8.6-34.4-3-49
		c-10.6-9.6-16.2-23.3-11.1-36.9c3.1-8.6,9.2-15.8,17.2-20.2c-4-9.1-6.6-19.7-3.5-29.8c4-14.1,16.2-25.3,30.8-27.3l0.5-1.5
		c-9.6-11.1-19.7-23.8-14.2-39.4c3.5-14.7,17.7-26.3,32.3-27.8v-2.5c-7.6-10.6-7.6-27.3-1-37.9c6.6-14.2,20.2-20.7,35.4-19.7l9.1,1
		c-4-11.1-5.6-24.8,1-35.4c7.6-13.1,20.7-20.7,35.4-19.7c5.1-0.5,11.1,1.5,15.7,4.6c-0.5-10.1,1-19.7,6.1-27.3
		c8.6-13.6,25.8-19.7,41.5-16.7c4.5,1,9.1,3,13.1,6.1c4.1-7.6,6.6-16.2,14.2-21.7c10.1-9.1,25.3-11.6,38.9-6.6
		c7.6,3,15.2,9.6,19.7,17.7c9.6-9.6,20.7-16.2,35.4-13.1c0.5-5.1-2-10.6-1.5-15.7c0.5-13.6,9.1-26.3,22.3-32.3
		c10.6-5.6,25.3-4,36.4,1c-3-13.6,0.5-27.3,10.6-36.4c9.3-9.2,22.6-13.2,35.4-10.6c5.6,1.5,10.6,5.1,15.7,8.6
		c3-3.5,3.5-9.6,7.1-13.6c6.1-11.1,17.2-17.7,29.3-19.2c11.6-1.5,21.7,6.1,29.8,14.2c5-11.1,17.2-20.7,29.8-22.2
		c6.6-1.5,11.1,1,17.7,0c7.6-9.6,19.2-13.6,30.3-17.7l1.5-2.5V56.7l-28.3-0.5c-0.5-8.6-1.5-19.2,0-28.8l26.8-0.5
		c3-8.6-1-19.2,2.5-26.8l28.8,0.5L1258.1,26.3L1258.1,26.3z"/>
	<path class="st1" d="M1251.5,32.4c7.1,1,17.2,0.5,25.8,0.5c1,5.6,1,12.6,0,17.2h-24.8l-1.5,3l0.5,37.9c9.1,4,20.2,5.1,28.8,12.1
		l10.6,10.1c10.4-2.6,21.5,0.2,29.3,7.6c4.5,5,7.6,11.1,9.1,18.2c1.5,0.5,4.6,1.5,7.1-0.5c2.5-12.1,14.2-21.7,26.8-23.3
		c9.6-1,18.7,3,26.3,9.1c8.1,7.6,9.1,19.2,8.6,30.3c7.6,7.1,7.6-7.1,15.2-8.1c7.1-4.5,16.7-5,25.8-3.5c6.6,3,15.2,8.6,18.7,16.2
		c5.1,9.6,3.1,22.7,0,32.9c4.1,0,6.6-5.6,11.6-7.6c9.1-7.1,23.8-5.6,33.9,1c9.6,6.6,13.6,17.7,13.1,29.8c-0.5,7.6-5.5,12.6-7.6,19.2
		l1.5,1c8.1-4.6,16.7-6.6,26.8-3.5c12.1,4.5,19.7,16.7,23.8,29.3c1,1,1.5-1,2.5-2c0.5-12.6,7.1-25.8,20.2-29.8
		c10.6-4.6,23.8-2,33.4,6.1c7.6,7.1,9.6,17.7,10.1,28.8l1,1c7.6-10.1,18.7-16.7,32.9-13.6c9.6,2,21.2,9.6,24.2,20.7
		c2.5,7.6,1.5,17.7-2,24.8c-0.5,2.5,2,3,4,4.5c6.6-5.6,14.2-11.1,24.3-11.1c10.7-0.4,20.8,4.8,26.8,13.6c7.6,12.6,6.6,31.8-2,43.5
		c-0.5,2,1.5,4.5,3.5,5.6c8.6-7.6,22.8-12.1,34.4-5.1c9.6,6.1,14.7,17.2,15.2,28.8c-2,10.1-5.5,20.2-13.6,26.3c-1,1,0,1.5,1.5,1.5
		c11.1-2.5,24.8,1,33.9,11.1c4,6.6,7.6,14.7,6.1,23.8c-2,11.1-13.1,19.2-17.7,29.3c1.5,6.1,9.6,2,14.6,5.6
		c10.1,2.5,17.7,14.2,20.2,24.2c-0.5,9.1-1.5,18.7-7.1,25.8v1.5c10.1,6.1,21.8,15.2,21.2,29.3c-1,7.1-4,13.6-7.6,19.2
		c6.6,11.1,10.1,25.8,6.6,39.9c-6.1,15.7-21.2,26.3-36.9,27.8c-10.6,0.5-19.2-1-26.8-4.5c-19.2,20.7-49.5,32.9-77.4,23.8
		c-2.5,2,0,6.1,0,10.1c-1,5.6-6.6,9.1-10.6,12.1l-8.1,0.5c-29.3-12.6-58.1-24.3-86.4-35.9c-72.3-25.3-145.6-47.5-221.9-58.6
		c-128.4-21.7-266.4-6.6-391.3,28.8c-66.7,18.7-130.9,41.5-193.1,70.3c-6.1,0-11.6-4.5-15.2-9.1c-3-5.1-0.5-11.1,0-15.2
		c-24.3,4.5-51.6,0-70.3-18.7c-14.2,5.1-32.4,2.5-44-5.1c-12.1-8.1-17.2-20.2-17.2-33.9c0.5-8.6,3-15.7,6.6-22.7
		c-7.1-6.1-13.6-13.1-14.7-22.3c-1.5-12.6,6.1-22.7,16.2-28.8c1.5-1.5,5.1-1,6.1-4.1c-7.6-8.6-10.1-20.2-6.6-30.8
		c4.1-10.1,12.6-19.7,23.8-21.2c3-1.5,8.1,0.5,10.1-3c-3-8.6-11.6-15.2-15.2-22.7c-5.5-9.6-3-22.8,3.5-30.8
		c8.1-10.6,21.2-14.2,33.9-11.6c1,0.5,1.5-1.5,1-2c-9.6-7.1-16.2-18.7-13.6-31.4c1.5-10.6,8.1-21.2,18.7-25.3
		c12.1-5.1,25.8-1.5,35.9,6.6c12.1-6.1-5.1-9.1-5.1-15.7c-6.1-10.6-4.6-25.3,2.5-34.9c8.1-9.6,19.7-14.7,32.3-11.1
		c5.1,1.5,11.6,5.1,15.2,10.1c2-0.5,4-2,5.6-3.5c-5.6-8.6-5.6-20.2-1.5-29.3c6.6-12.1,19.7-18.2,32.9-17.7c9.6,0,17.7,6.6,24.3,13.7
		c3.5-4.1,0.5-10.6,3-15.2c3.5-11.1,13.1-21.2,25.3-22.7c11.7-1.6,23.3,3.2,30.3,12.6c3.6,4.1,4.1,9.6,7.6,13.7
		c4.1-7.1,10.1-14.2,18.2-17.2c9.1-5.5,21.2-2.5,30.8,2c2-1.5,0-4-1-5.6c-7.1-8.1-8.1-22.3-3.5-31.9c5.1-11.1,16.7-18.2,29.3-18.2
		c11.6,0.5,21.7,6.6,28.3,16.7c2.5,0.5,5.1-2.5,7.1-4.6c-7.6-8.6-12.1-19.2-8.6-30.8c2-11.6,12.1-20.7,22.7-23.2
		c10.1-3.5,21.2,0.5,29.3,7.6l8.6,10.6c4-3.5-0.5-11.6,2.5-16.7c2.5-11.1,10.1-21.2,21.7-25.3c8.6-3.5,19.7,0.5,27.3,7.6
		c4.5,3,6.1,9.1,10.1,13.1c3.5-6.1,4.6-14.7,10.6-20.2c8.6-8.6,22.7-13.1,35.9-8.1c10.1-10.6,23.3-18.2,37.9-20.7
		c0-13.6,1-27.3,0-40.9l-2.5-1H1207l-1.5-1.5l1-15.2l26.8-1c1-8.1,0-17.2,1-25.3c4.5-1.5,10.6-1,16.7-0.5L1251.5,32.4L1251.5,32.4z"
		/>
	<path class="st0" d="M1201,123.4c8.1,6.1,10.6,17.7,7.6,27.8c-4.6,8.6-13.1,16.2-22.3,17.2c-11.6-0.5-22.2-5.6-26.3-15.7
		c-2.5-6.1-3.5-13.1-0.5-19.2c3-9.1,11.6-15.2,21.2-16.2C1188.3,116.8,1194.4,118.8,1201,123.4z M1322.3,134.5
		c2.5,9.1,1,19.7-5,27.3c-5.5,4.5-12.1,7.6-19.7,7.6c-7.6,0-13.1-4.1-17.7-9.1c-6.2-6.9-8-16.7-4.5-25.3
		c3.5-9.6,13.7-17.2,24.3-16.7C1308.6,118.8,1319.3,124.9,1322.3,134.5L1322.3,134.5z M1390.5,136.5c2,6.6,2.5,14.7-0.5,21.2
		c-4,7.1-10.6,12.6-17.7,14.2c-10.1,2-20.2-2-25.8-9.6c-6.1-6.1-6.1-14.7-4.5-22.7c3-10.1,13.1-17.7,23.8-18.2
		C1374.9,121.4,1385.5,126.4,1390.5,136.5L1390.5,136.5z"/>
	<path class="st2" d="M1198.4,130c4.5,4.1,4.5,11.1,3.5,17.2c-1.7,5.3-5.3,9.8-10.1,12.6c-5.6,2.5-12.1,1.5-16.7-0.5
		c-4.5-2.1-8-5.9-9.6-10.6c-2-6.1-1.5-12.6,3-17.7C1175.2,121.4,1189.8,121.4,1198.4,130z M1313.7,132c3.5,4.1,4.5,10.1,3.5,16.2
		c-1.5,5.6-6.1,10.6-10.6,13.1c-6.1,1-11.6,3-16.2-0.5c-6.6-2.5-9.6-8.6-9.6-14.7c-1-7.1,0.5-13.1,6.6-17.2
		C1295,121.9,1306.6,124.4,1313.7,132L1313.7,132z M1380.9,134c3,4,5.1,9.6,4.5,15.7c-1.6,5.8-5.2,10.8-10.1,14.2
		c-5.1,3-11.1,2-15.7,1c-5.5-2.5-9.6-7.1-11.1-12.1c-2-7.6-0.5-16.2,7.1-20.7C1362.2,125.9,1374.4,126.9,1380.9,134z"/>
	<path class="st0" d="M1139.8,138.1c5.6,7.6,7.1,19.2,2.5,28.3c-5.6,6.6-12.1,12.1-20.2,12.6c-9.6,0.5-18.7-4.1-23.2-12.1
		c-4.1-5.5-4.6-13.6-3-20.2c3-10.1,13.1-17.7,23.8-18.7C1127.2,128,1134.2,132,1139.8,138.1z"/>
	<path class="st2" d="M1132.2,139.6c5.1,4.6,6.6,11.1,5.6,18.2c-1,5.6-6.1,11.1-10.6,13.7c-5.1,2-12.6,1.5-16.7-2
		c-5.1-3.5-9.1-9.1-8.6-15.7c0-7.1,3.5-13.7,10.6-17.2C1118.1,133.5,1127.2,134,1132.2,139.6L1132.2,139.6z"/>
	<path class="st0" d="M1453.2,163.3c2.5,6.6,2.5,15.2-0.5,21.2c-5.1,9.6-16.2,15.2-26.3,14.2c-8.1-1-15.7-6.1-19.2-13.1
		c-4.5-8.1-4.1-20.2,2.5-27.8c6.1-8.6,17.7-11.6,28.3-8.1C1443.6,152.2,1450.2,157.3,1453.2,163.3L1453.2,163.3z M1076.1,157.8
		c3.5,5.6,7.1,11.1,6.1,18.7c-1,7.6-5.1,14.7-11.1,19.2c-8.3,5.3-19,5.3-27.3,0c-8.3-5.3-12.7-15-11.1-24.8
		c0.5-7.6,5-14.2,12.1-18.2C1054.4,147.2,1068.5,148.2,1076.1,157.8L1076.1,157.8z"/>
	<path class="st2" d="M1443.1,160.3c4.1,5,6.6,12.6,4.6,19.7c-3.5,7.6-11.1,12.6-18.7,12.6c-7.1-0.5-13.6-3.5-15.7-9.6
		c-3.5-5.6-3.5-13.1,0-18.2c1.5-5.6,7.1-9.1,13.2-10.1C1432.5,154.8,1438,155.8,1443.1,160.3L1443.1,160.3z M1069.5,160.3
		c4.6,4,5.6,9.6,6.1,15.7c-1,6.6-5.6,12.1-10.6,16.2c-6.6,2-13.6,1.5-19.2-3c-4-4.1-7.1-8.6-6.6-14.2c-1-6.1,3-10.6,6.6-14.7
		C1052.3,154.8,1062.9,153.2,1069.5,160.3z"/>
	<path class="st0" d="M1267.7,191.6c3,5.6,4,13.2,2,19.7c-3.1,9.6-13.7,16.7-23.3,17.7c-9.6-0.5-20.2-4.5-24.2-13.6
		c-3.6-6.6-4.6-16.2-0.5-22.8c3.5-7.6,11.1-12.6,19.2-14.2C1251.7,176.9,1262.4,182.1,1267.7,191.6L1267.7,191.6z"/>
	<path class="st2" d="M1260.6,193.2c3.1,4.5,3.5,12.1,2,18.2c-2,4-6.1,6.6-9.1,9.6c-5.8,1.9-12.2,1.6-17.7-1
		c-6.1-3.5-9.6-9.6-9.6-15.7c-0.5-7.1,3.5-13.6,10.1-17.2C1244.4,183.1,1255.1,184.6,1260.6,193.2L1260.6,193.2z"/>
	<path class="st0" d="M1508.8,200.7c3.5,8.6,2,20.2-3.5,27.3c-8.6,7.6-18.7,11.1-29.3,7.6c-7.1-2.5-12.6-9.1-14.7-15.2
		c-3-9.1-1.5-19.2,5.6-25.8c6.3-7.5,16.4-10.5,25.8-7.6C1498.7,190.1,1505.3,193.7,1508.8,200.7L1508.8,200.7z M1023.5,206.8
		c2,5,3,12.6,1,18.7c-2.5,6.6-8.6,12.6-14.7,15.7c-9.6,3-20.7,1.5-26.8-5.1c-7.6-7.1-11.1-18.7-7.1-28.3
		c3.5-9.1,11.6-14.2,20.7-15.7C1007.3,191.1,1018.5,196.7,1023.5,206.8L1023.5,206.8z"/>
	<path class="st2" d="M1503.8,205.8c1,4.6,0,10.1-1.5,14.7c-4.5,6.1-10.6,9.6-17.2,10.1c-6.6,0-11.6-3-14.6-7.1
		c-4.2-4.5-5.5-10.9-3.5-16.7c1-5.6,5.5-11.1,11.6-12.6C1488.6,189.6,1499.2,196.2,1503.8,205.8L1503.8,205.8z"/>
	<path class="st0" d="M1457.8,261.4c45,40.4,64.2,96.1,62.2,158.7l-17.2,15.7c-12.1-1-22.8,1.5-30.8,10.1
		c-10.1,14.2-15.2,31.9-12.1,49.6c3.1,13.6,16.2,22.7,29.8,24.8c-0.5,7.6-7.6,14.7-12.6,20.7c-10.8,7.3-24.3,9.5-36.9,6.1
		c-13.6-3-24.8-16.7-27.3-29.3c-4-10.1,3.1-17.7,3.5-26.8c0.5-11.8-4.8-23.1-14.2-30.3c-8.6-7.6-21.2-7.6-30.8-4
		c-11.6,4.5-22.2,16.2-22.2,28.8c-2,7.1,3,14.2-1,20.7c-7.6,13.1-21.8,23.8-36.4,22.7c-13.1,1-24.3-6.1-31.9-15.2
		c-5.5-7.1-8.6-15.2-7.6-23.8c13.1,0.5,28.8-1,38.4-14.2c9.1-11.6,5.6-29.3,6.1-43c-1.5-11.1-12.1-21.7-21.7-25.8l-11.1-2
		c-1-10.6-9.1-19.7-18.2-24.8l-13.6-5v-1c10.6-3,21.2-12.6,23.8-23.8c4-12.6-2.5-23.8-8.1-32.3l0.5-21.2
		c7.6-10.1,11.6-24.3,6.1-35.9l-6.6-12.1l0.5-21.7c6.6-8.6,9.1-19.7,8.6-29.8C1345,189.6,1406.7,215.9,1457.8,261.4L1457.8,261.4z
		 M1212.6,198.2c0,9.1,2.5,17.2,5.5,25.3l-0.5,33.9c-7.1,10.1-4.5,25.3,0.5,35.9l-0.5,33.4c-5.6,8.1-6.1,21.7-0.5,30.8
		c3.5,8.6,13.1,13.1,21.2,16.7c-4,2.5-10.1,3-14.2,5.1c-11.6,3.5-18.2,15.2-20.7,25.3c-13.6,8.1-29.8,16.2-34.9,31.9
		c0.5,13.1-4.6,29.8,6.1,39.9c8.6,12.6,24.8,14.7,38.9,14.2c-0.5,14.2-10.1,28.3-23.3,33.9c-13.6,6.1-29.3,3.5-40.9-3
		c-8.6-6.1-13.6-14.7-16.2-23.3c1-11.6-0.5-23.8-8.1-32.3c-8.6-9-21.3-12.6-33.4-9.6c-11.1,3-23.2,13.1-24.8,25.3
		c-2.5,11.6,1,22.7,8.1,31.8c-1.5,14.7-10.6,29.8-25.8,34.4c-16.7,4.5-32.9,1-44-11.1c-4.6-5-8.6-10.6-9.1-16.7
		c11.6-3,23.2-14.2,25.8-26.3c0.5-17.2-3.5-34.4-14.2-47.5c-8.1-7.1-18.2-11.1-28.8-9.6l-18.2-19.7c-0.5-74.8,41.5-137,101.6-184
		c37.9-28.8,86.4-36.4,136.5-35.9L1212.6,198.2L1212.6,198.2z"/>
	<path class="st2" d="M1013.9,204.8c4.6,4,5.1,11.1,4.6,16.7c-1,5.1-5.6,9.6-10.1,13.1c-5.6,2.5-12.1,1.5-17.2,0
		c-7.3-3.9-11.1-12.1-9.6-20.2c0.5-5.6,4.1-11.1,9.1-13.6C998.2,196.7,1007.8,198.7,1013.9,204.8L1013.9,204.8z M1417.3,238.7
		c40,24.3,75.8,64.7,88,109.7c-67.3-39.4-151.7-51.1-230.5-36.9v-13.2c8.1-9.6,10.6-23.3,7.1-35.4c-2-5-4.1-9.6-7.1-13.7v-21.7
		c6.1-7.1,8.1-15.7,9.1-24.8C1331.9,199.2,1377.9,212.4,1417.3,238.7L1417.3,238.7z M1206.5,203.8c0.5,7.6,3,14.6,5.1,22.2
		c-1.5,13.1,2,29.3-4.1,42c-1.5,8.6,0.5,17.7,4.1,26.3l-0.5,17.2c-72.3-12.1-150.6-4.5-213.9,27.8c-6.1,1.5-11.6,5.6-16.7,8.6
		c11.6-40.4,44-72.8,76.3-102.6C1097.3,209.8,1152.4,201.3,1206.5,203.8L1206.5,203.8z"/>
	<path class="st0" d="M1614.5,241.7c7.6,7.1,7.6,19.2,4.5,28.8c-6.1,8.1-14.6,13.6-24.3,13.6c-10.1-0.5-19.7-6.6-22.7-15.2
		c-3.1-6.6-3.5-15.2,0-21.2c4.5-8.1,12.1-13.6,21.2-14.1C1600.8,232.6,1608.4,235.6,1614.5,241.7L1614.5,241.7z M911.3,243.7
		c5.1,5.1,8.1,12.1,7.6,19.7c-0.5,7.1-3.5,12.6-8.1,17.7c-6.1,5.1-14.7,6.6-22.2,5.6c-7.6-1-14.2-6.1-17.2-12.1
		c-3-6.1-5-14.2-2-20.2c2.5-9.6,12.1-16.7,21.7-17.7C898.1,236.6,905.7,238.7,911.3,243.7z M1549.8,251.3c3.1,5,2.5,13.1,1.5,19.2
		c-3,6.7-8.2,12.2-14.6,15.7c-6.6,1-14.2,2.5-19.7-1c-9.1-5.1-14.7-14.7-13.6-23.8c-0.5-10.1,6.6-18.7,15.7-22.7
		C1530.6,234.1,1543.7,239.7,1549.8,251.3z"/>
	<path class="st2" d="M1608.9,245.7c3.6,4.5,6.1,10.6,4.6,17.2c-1.5,4.6-4.6,9.6-8.1,12.1c-7.1,4.1-15.7,3.6-21.2-1
		c-5.6-4.5-8.1-10.1-7.6-16.7c0-5.6,3.5-10.6,8.6-13.6C1591.7,238.7,1603.4,238.7,1608.9,245.7z"/>
	<path class="st0" d="M976,251.3c5,5.6,7.1,13.6,6.1,21.7c-2,9.1-9.6,17.2-18.2,19.7c-7.1,1.5-15.7,0.5-21.2-3.5
		c-5.6-5.1-10.6-11.1-11.1-18.2c-1.1-10.6,4.6-20.7,14.2-25.3C955.8,240.7,967.4,243.2,976,251.3z"/>
	<path class="st2" d="M907.7,249.8c4.6,4.6,5.1,12.6,3.5,19.2c-2,5.1-6.6,8.1-11.6,11.1c-8.6,2.5-16.7,0-21.8-6.6
		c-4.5-7.1-5-17.7,1-23.8c3-3.5,7.1-5.5,11.6-6.1C897.1,242.7,903.2,244.7,907.7,249.8L907.7,249.8z M1542.7,251.3
		c3,3.5,3,9.6,3,15.2c-1.5,5.1-5.6,9.6-9.6,12.6c-4.5,1.5-9.6,3-13.6,1.5c-5.1-1.5-9.6-5.6-11.1-10.1c-2.5-5-2-12.1,0.5-16.7
		c3.1-6.1,8.6-11.1,16.2-10.1C1533.6,243.7,1538.7,246.8,1542.7,251.3L1542.7,251.3z"/>
	<path class="st0" d="M1268.2,262.4c2.5,6.1,3.5,15.2,0.5,21.7c-3.5,6.1-9.1,11.6-15.2,13.6c-9.6,2.5-20.2,0.5-26.8-6.1
		c-5.6-5-7.1-11.6-7.6-18.2c0-11.1,7.6-20.7,18.2-23.8C1249,245.7,1262.1,251.3,1268.2,262.4L1268.2,262.4z"/>
	<path class="st2" d="M971.9,256.9c2.5,4,4,9.6,3.5,14.7c-1.5,5.5-5.1,11.1-10.1,14.2c-6.1,2-13.1,2.5-18.2-1.5
		c-5.8-3.4-9.2-9.9-8.6-16.7c0.5-5.6,2-11.1,7.6-14.2C953.2,247.8,965.9,248.3,971.9,256.9z M1260.1,261.9
		c3.1,4.6,5.1,11.6,3.1,17.7c-2.6,5.6-7.1,11.1-12.7,12.6c-6.1,1.5-11.6,0-16.2-2.5c-5.6-4-9.1-10.6-8.1-17.2
		c-0.5-6.1,3.5-11.1,8.6-14.7C1242.4,253.3,1253.5,253.8,1260.1,261.9z"/>
	<path class="st0" d="M1679.2,273.5c2.5,6.6,1.5,14.7-1.5,21.2c-6.1,8.6-16.7,14.7-27.3,12.7c-7.1-1.5-13.7-5.6-16.2-11.6
		c-5-6.1-5.5-15.2-2.5-21.8c3-9.6,12.1-16.7,22.2-16.7C1664,256.4,1673.6,263.9,1679.2,273.5L1679.2,273.5z M855.7,274.1
		c2.5,6.1,3.5,14.2,1.5,20.7c-4,10.1-14.6,16.2-25.3,16.7c-8.1-1-16.2-5.1-20.7-11.6c-4.1-6.6-5.6-14.7-3-21.7
		c3-9.1,12.1-15.7,21.7-17.2C840,259.4,849.6,264.9,855.7,274.1L855.7,274.1z"/>
	<path class="st2" d="M1669.1,270.5c3.5,4.5,5.1,11.1,3.5,17.7c-2.3,5.4-6.4,9.9-11.6,12.6c-8.6,1.5-16.2-1-21.2-7.6
		c-3.5-5.1-4.6-12.6-1.5-18.2c1.5-6.1,8.1-9.1,14.2-11.1C1658,262.9,1664,266,1669.1,270.5L1669.1,270.5z M847.6,274.1
		c3.5,4,4.5,10.1,4,16.2c-2,6.1-7.6,12.1-13.1,14.2c-6.1,1.5-12.1-0.5-16.7-3.5c-5.1-4.6-9.6-9.6-7.6-16.7c0-5,3.5-9.6,7.6-12.6
		C828.9,264.9,841.5,266.5,847.6,274.1z"/>
	<path class="st0" d="M1735.8,312c2.5,6.6,2.5,15.7-1,22.3c-5.5,8.1-14.6,14.2-24.2,13.1c-7.1-1-13.1-3-16.7-8.1
		c-4.8-5.2-7.2-12.2-6.6-19.2c0.4-8.4,5.2-15.9,12.7-19.7c5.5-3.5,13.1-4.5,20.2-2.5C1726.8,300.6,1732.3,305.6,1735.8,312
		L1735.8,312z M1583.1,312c2,6.6,2.5,15.7-1,22.3c-3.5,7.1-10.1,10.6-16.2,13.1c-6.6,0.5-15.2,1-19.7-3
		c-9.6-6.1-14.2-16.2-12.1-26.3c1.5-7.6,5.5-14.2,12.6-17.7C1560,293.9,1576,299,1583.1,312L1583.1,312z M794,308.4
		c7.1,8.1,7.1,21.2,3,30.8c-4.6,8.1-13.6,12.1-22.2,11.6c-10.6-0.5-20.2-8.6-22.7-18.2c-2.5-10.6,1-21.2,10.1-27.3
		C770.7,297.3,785.9,298.8,794,308.4z M946.2,314.5c5.6,7.6,6.1,19.2,1,27.8c-5,7.6-13.1,11.1-21.7,11.6c-7.6,0.1-14.9-3.2-19.7-9.1
		c-5.6-6.1-6.6-14.2-5.1-21.7c1-7.1,6.6-14.2,13.1-17.2C925.4,300.8,938.6,303.4,946.2,314.5L946.2,314.5z"/>
	<path class="st2" d="M1730.3,315.5c1,5.5,0,10.6-1.5,15.7c-4.6,7.6-12.1,10.6-18.7,10.1c-6.1-1-11.6-5.6-13.6-10.1
		c-4.1-5.6-3.1-12.1,0-17.7c1.5-6.6,8.6-9.1,14.6-10.1C1718.6,302.9,1726.2,307.9,1730.3,315.5z M1573.6,309.9
		c3.5,4,5,10.1,4.5,16.2c-1.5,5.1-5.1,9.6-9.1,13.1c-7.1,3-16.7,3-22.2-2c-6.1-6.1-8.1-13.1-5-21.2c1.5-6.6,8.1-11.6,15.2-12.1
		C1563.4,302.9,1569,305.4,1573.6,309.9L1573.6,309.9z"/>
	<path class="st0" d="M1652.4,339.3c30.3,19.7,58.6,48.5,73.8,82.9c16.2,35.9,24.8,75.3,31.8,115.8c-2.5,3.5-8.1,2.5-11.1,6.1
		c-15.2,9.6-18.2,26.3-23.2,41.5c-2,14.2,6.1,26.8,18.7,33.4l12.6,5.6v2.5c-12.1,9.1-27.3,12.6-41.5,8.6
		c-12.6-4-24.2-14.7-28.3-26.8c-2-7.6-3.5-16.2-0.5-22.7c7.6-9.6,10.6-21.7,7.6-33.9c-3.5-10.6-13.6-19.7-23.2-22.2
		c-12.1-4-25.3-0.5-32.8,8.6c-8.6,7.1-10.6,17.2-11.1,27.3c-11.1,12.1-28.3,16.2-43,13.6c-13.6-2.5-25.8-13.1-30.8-25.3
		c-2.5-5.6-4-11.6-3.1-17.7c12.7,3.5,30.9,7.6,43-3c12.7-11.1,12.1-27.8,16.7-42.5c0-13.1-6.6-24.8-16.7-29.8c-7.6-2-1-10.1-3-15.2
		c-2.1-9.5-7.7-17.8-15.7-23.2v-1c13.1,0.5,26.8-6.1,33.4-18.7c5.1-10.6,3-25.8-4-34.4c-7.6-8.6-17.7-12.1-28.3-11.6
		c-7.1-8.1,5.5-6.6,8.1-11.6c9.6-8.6,11.6-23.8,8.1-35.4c-1-1.5-2-2.5-0.5-3.5C1609.4,316.5,1632.2,324.6,1652.4,339.3z"/>
	<path class="st2" d="M792,316.5c2.5,5.1,2.5,13.2,0,18.7c-3.3,6.4-10,10.2-17.2,9.6c-6.1-0.5-12.1-5.1-14.7-9.6
		c-2.4-5.1-2.6-11-0.5-16.2c1.5-6.1,7.6-11.1,14.2-12.1C781.4,305.9,787.9,309.9,792,316.5L792,316.5z M939.6,316
		c2.5,3.5,5.1,7.6,5.1,13.1c-1,5.4-3.4,10.5-7.1,14.7c-4.6,3-10.6,4.1-15.7,3.5c-6.6-1-12.6-6.6-14.2-12.1c-2-5.1-2-11.6,1-15.7
		c2.8-5.8,8.7-9.6,15.2-9.6C929,309.4,935,311.5,939.6,316L939.6,316z"/>
	<path class="st3" d="M1508.3,359c3.5,19.2,6.1,39.4,5.1,59.7l-13.6,10.6c-16.2-1.5-29.8,6.1-37.4,18.7c-6.6,17.7-18.2,41.5-4,59.6
		c4,8.6,13.1,14.2,22.8,16.7c-2.5,7.6-10.6,14.2-17.7,16.7c-12.1,4-25.3,0.5-33.4-7.1c-8.6-7.1-12.7-17.2-11.1-27.3
		c4.5-10.6,5.5-23.8,1-34.4c-6.1-13.1-20.7-24.8-34.9-24.3c-15.7-0.5-28.8,6.6-36.9,19.7c-6.6,9.1-6.6,21.7-5.6,32.9
		c-4.5,9.6-13.6,19.7-24.8,21.7c-12.6,1-25.3-1.5-32.3-12.1c-3.5-4.1-6.6-9.1-6.1-14.2c12.6,0.5,26.3-3.5,34.9-14.2
		c12.1-14.1,7.6-33.4,8.1-51.1c-2-13.6-13.6-25.3-25.3-29.8l-7.1-1.5c-3.5-10.6-12.1-21.2-22.2-25.8c9.7-7.6,15.7-19,16.2-31.4
		c-0.5-9.1-4.1-17.2-8.1-23.8C1354.2,304.4,1442.1,314,1508.3,359L1508.3,359z M1211.1,318.5c1,7.1-4.6,13.1-4,20.7
		c-0.5,13.1,3.5,25.3,14.6,33.4c-2.5,1.5-6.1,3-8.6,5c-8.6,7.1-13.7,14.7-16.7,23.8c-14.2,7.6-29.3,16.2-34.9,32.4
		c0,16.7-3.5,37.9,11.1,50c8.6,8.7,20.6,13.2,32.8,12.1c-1,8.6-8.1,15.7-15.2,21.2c-12.1,5.6-27.8,5.6-38.4-2
		c-5-5.6-12.1-11.6-12.1-19.2c1.5-14.6-2.5-28.8-14.2-38.4c-10.6-8.6-25.3-11.6-37.9-7.1c-14.2,3.5-25.3,18.2-26.8,31.9
		c-2.5,12.6,2.5,23.2,7.6,33.9c-2.5,10.1-9.1,21.7-20.2,25.3c-10.1,3-23.3,2.5-31.9-3.5c-5.5-4.5-10.1-8.6-11.6-14.7
		c11.6-4,20.2-16.2,23.8-27.3c2-19.2-4-36.9-13.1-51.6c-8.6-10.1-20.7-15.2-33.9-14.7l-14.1-15.7c0.5-19.2,2.5-37.9,9.1-55.1
		c15.7-11.6,33.9-19.2,52.1-26.3h1.5C1087.2,311,1149.4,308.9,1211.1,318.5L1211.1,318.5z"/>
	<path class="st0" d="M893.1,328.7c0,8.6,3.5,16.2,9.6,22.7c2,6.6,18.2,4.5,11.1,14.1c-13.6-2-25.8,4.1-32.4,15.2
		c-6.1,9.6-5.1,25.3,1.5,34.9c5.1,6.1,12.2,10.6,19.7,12.6c-6.1,8.6-11.1,18.2-9.1,30.3c-10.6,5-21.2,15.7-21.2,28.8
		c-0.5,12.6,3.5,24.3,7.6,35.9c4.5,8.6,14.2,16.7,24.8,17.7c11.6,1.5,22.2-3.5,33.4-5.6c3,16.2-6.1,31.3-19.7,39.9
		c-12.6,7.6-28.8,8.1-42.5,2.5c-7.6-5.1-16.2-11.1-19.2-19.7c-2.5-11.6-13.6-20.2-23.8-23.8c-10.9-2.5-22.4-0.1-31.4,6.6
		c-9.1,7.1-13.1,19.2-11.6,31.3c0,9.1,5.6,16.2,12.1,22.7c0.5,13.6-5,25.8-15.2,35.4c-14.2,11.1-34.4,10.6-49,2.5v-1.5
		c12.1-7.1,23.2-19.2,24.3-33.4c-2-14.2-8.6-26.8-14.2-39.4c-4-6.1-10.1-8.6-16.7-10.1c3.5-45.5,16.2-88.5,34.9-128.4
		c12.6-27.3,32.4-54.1,59.1-69.8c21.2-17.2,45-28.3,69.8-37.4C895.6,318,892.6,323.1,893.1,328.7L893.1,328.7z M1263.2,324.1
		c7.1,6.6,9.6,18.2,6,27.8c-2.5,7.1-10.1,12.1-16.7,14.7c-10.6,2.5-22.3-0.5-28.3-9.6c-4.5-5.9-6-13.6-4-20.7
		c0.5-7.1,6.6-12.6,12.6-16.2C1241.4,315.5,1255.1,316,1263.2,324.1z"/>
	<path class="st2" d="M1727.2,441.9c-34.4-23.2-72.8-35.4-111.2-44c1.5-14.7-4.1-28.3-13.7-38.4c-5.5-3.5-11.1-6.6-16.7-8.1
		c9.1-8.6,13.1-20.2,13.1-32.9C1652.4,338.8,1710,384.3,1727.2,441.9z M886.5,324.1c-2,14.2,5.6,26.3,14.7,35.4
		c-12.1,2.5-24.3,11.6-28.3,24.3l-2.5,13.7c-36.9,8.1-73.8,17.7-104.6,40.4c9.1-27.8,27.3-56.1,53.6-74.3
		C839,346.3,861.8,332.9,886.5,324.1z M1258.1,328.2c4,4.6,6.6,11.1,5.6,18.2c-1.6,5.7-5.4,10.4-10.6,13.1
		c-6.1,2.5-13.6,1.5-18.7-1.5c-5.6-4.1-8.6-10.1-8.1-16.7c0.5-6.6,4-13.1,10.6-15.7C1243.7,321.9,1252.3,322.9,1258.1,328.2
		L1258.1,328.2z"/>
	<path class="st0" d="M1780.3,363c4.1,7.1,3.5,17.7,0.5,25.8c-5.1,7.6-14.7,13.1-23.8,12.1c-8.1,0-14.7-4-18.7-9.6
		c-4.5-6.1-7.1-12.6-4.5-20.2c1-7.1,5.1-14.1,12.1-17.2C1756.6,347.4,1773.2,350.4,1780.3,363L1780.3,363z M752,365.6
		c4.5,6.1,4.5,14.7,3,22.7c-2.5,6.1-8.1,11.6-14.7,14.7c-6.6,2-15.7,2.5-21.7-0.5c-9.6-4.6-14.7-14.7-13.6-24.8
		c0-7.6,4-14.2,10.6-18.7C726.2,350.9,743.9,353.4,752,365.6L752,365.6z"/>
	<path class="st2" d="M1772.8,363.5c4,4.5,5,12.1,3.5,18.7c-1.7,4.2-4.7,7.7-8.6,10.1c-6.1,3.5-13.1,2.5-18.2,0.5
		c-8.1-4.6-11.6-13.1-9.1-21.2c0.5-5.1,4-9.6,9.1-12.1C1756.6,354.4,1766.2,357,1772.8,363.5L1772.8,363.5z M746,369.1
		c4,4,3.5,11.1,2.5,17.2c-1.5,4.6-5.5,8.6-10.1,11.1c-7.6,2.5-17.2,1-22.7-5c-5.1-6.1-6.1-15.7-1.5-22.8c3-5.6,9.1-8.1,14.7-9.1
		C735.4,360,741.9,363.5,746,369.1L746,369.1z"/>
	<path class="st0" d="M1599.8,376.7c3.1,6.1,4.1,13.6,2,20.7c-4.1,9.1-12.7,15.7-21.3,17.2l-13.1-1.5c-10.1-5.6-18.2-14.7-16.2-26.3
		c0-6.6,3.5-12.6,9.1-16.7c6-6.6,16.2-7.6,25.8-4.6C1591.7,366.6,1596.3,371.6,1599.8,376.7L1599.8,376.7z"/>
	<path class="st2" d="M1592.3,376.7c2,3.5,4,7.6,4.5,12.6c-1.5,6.1-3.5,12.1-8.6,15.7c-5.5,2-12.1,4.6-16.7,2
		c-6.6-1.5-10.1-6.6-12.1-11.1c-2.5-5.6-2-12.6,2-17.2c2.5-4,7.1-7.1,12.1-8.1C1580.6,369.6,1586.2,372.1,1592.3,376.7L1592.3,376.7
		z"/>
	<path class="st0" d="M933,386.3c3,7.1,2,16.7-1.5,23.8c-5.1,8.1-14.2,12.1-23.3,12.1c-8.6-1-17.2-4.5-21.2-12.6
		c-5.1-8.1-5.1-19.7,1-26.8c5-7.6,12.6-10.6,21.2-11.1C918.8,371.6,929,376.7,933,386.3z"/>
	<path class="st2" d="M925.4,386.3c3,5.1,3.5,12.7,1.5,18.7c-4,5.6-9.1,10.1-15.7,11.1c-8.1,0.5-15.2-4.6-19.2-11.1
		c-2-4.5-3-10.6,0-15.2c2.5-7.6,9.6-12.1,18.2-12.1C915.8,378.7,921.4,380.7,925.4,386.3z"/>
	<path class="st0" d="M1279.8,421.7c6.6,10.6,6.6,27.8,0.5,39.4c-7.1,10.6-18.2,18.7-30.8,20.2c-12.6,0.5-24.8-2.5-33.4-11.1
		c-10.1-11.6-15.7-27.3-9.6-42c4.1-14.6,18.7-25.8,33.9-27.3C1256.6,399.4,1271.7,406.5,1279.8,421.7L1279.8,421.7z"/>
	<path class="st3" d="M1731.8,454.5c7.6,25.3,14.2,51.1,18.2,78.9l-0.5,2.5c-19.2,5.6-24.2,25.8-30.3,41.4
		c-4.1,10.1-2.5,23.3,4,32.9c3.5,7.1,12.1,12.1,19.7,16.2c-3.1,2.5-8.6,3-12.1,4.1c-11.6,1.5-25.3-4.1-32.4-12.6
		c-7.1-8.1-10.6-18.2-7.6-28.8c8.1-11.1,11.6-26.3,7.6-39.4c-4-10.6-13.6-21.2-23.8-24.8c-12.3-5.3-26.4-3.9-37.4,3.5
		c-11.4,7.9-18.2,21-18.2,34.9c-12.6,10.1-29.8,14.7-43.5,7.1c-10.1-4.6-18.7-14.7-20.2-24.8c7.6,1,17.2,1.5,26.3-0.5
		c24.8-5.6,27.8-33.4,32.8-53.6c-0.5-14.7-7.6-28.3-19.2-36.4c1-11.1-3-20.7-8.6-28.3c10.6-2.5,21.2-12.6,26.3-22.7
		C1655,413.6,1697.4,426.2,1731.8,454.5L1731.8,454.5z M889,429.8c1.5,0.5,4,2,2.5,4.6c-4,6.1-5.5,14.2-5.5,21.7
		c-11.1,5.5-18.6,16.1-20.2,28.3c-2,15.2,4.5,27.8,8.6,42c7.3,14,22.2,22.3,37.9,21.2L931,544c0,9.1-5.6,18.7-13.6,24.8
		c-10.6,7.6-25.8,8.1-37.4,3.5c-19.7-5.6-15.7-28.3-31.3-36.9c-10.6-9.1-25.3-10.6-37.9-6.6c-15.7,5.1-26.3,19.7-27.3,35.9
		c-0.5,12.6,3.5,23.8,12.6,32.9c-1.5,10.1-3.5,20.2-12.6,27.3c-9.6,7.1-21.2,9.6-32.4,6.1c11.1-11.1,21.7-26.3,15.7-43
		c-8.1-15.7-8.1-37.9-27.8-43.5c0.5-26.8,8.6-51.1,15.2-75.3l6.6-19.2c31.3-27.3,70.8-35.9,109.7-45.5
		C873.9,413.6,879.4,423.7,889,429.8L889,429.8z"/>
	<path class="st2" d="M1275.3,426.7c5.6,12.1,3.1,28.3-6.1,38.9c-11.1,9.6-26.8,12.1-39.9,6.1c-11.1-6.1-19.2-16.2-18.2-29.3
		c-0.5-11.1,3-21.7,13.1-28.3c8.1-6.1,19.2-8.1,30.3-5.6C1262.6,411.1,1271.2,418.1,1275.3,426.7L1275.3,426.7z"/>
	<path class="st0" d="M1810.7,427.7c2.5,9.6,0,20.2-7.1,27.8c-6,3.5-12.1,6.1-18.2,6.1c-7.6-1.5-14.7-4.6-19.2-10.6
		c-6.1-7.6-7.1-19.2-2-26.8c5.1-7.6,12.6-13.6,22.2-13.1C1796,410.6,1806.1,417.6,1810.7,427.7L1810.7,427.7z M726.8,432.3
		c3,8.1-0.5,17.2-5.1,24.3c-7.1,6.6-16.7,10.6-26.3,8.1c-7.6-2-13.2-9.6-16.2-15.7c-4.1-10.1-0.5-20.2,6.1-26.8
		c6.1-6.6,16.2-8.6,24.8-6.1C716.1,418.1,724.2,424.7,726.8,432.3z"/>
	<path class="st2" d="M1800.5,423.7c4,4,4.5,10.6,4.5,17.2c-2,5.5-7.1,11.1-12.1,13.1c-6.6,2-11.7,0.5-16.7-2
		c-5.1-3.5-7.6-8.1-7.6-13.1c-1-7.6,1-14.2,7.6-17.7C1782.8,415.1,1794,417.1,1800.5,423.7z M714.6,426.2c4,4,6.6,9.6,6.1,16.2
		c-1,6.1-5.6,13.1-11.6,15.2c-5.9,1.9-12.4,1.2-17.7-2c-6.6-6.1-9.1-15.7-5.6-23.3c2-6.1,8.6-9.6,14.1-11.1
		C705,420.7,710.1,422.7,714.6,426.2z"/>
	<path class="st0" d="M979.5,455.6c11.1,12.1,11.6,33.4,4.1,48c-9.1,11.6-22.3,18.2-35.9,18.2c-13.2-0.5-25.4-7.2-32.9-18.2
		c-6.6-10.1-9.1-24.3-4-35.4c4-15.7,19.2-25.3,34.4-26.8C958.8,440.4,970.4,445.4,979.5,455.6L979.5,455.6z M1567.5,456.6
		c8.6,10.1,13.1,24.8,9.1,38.4c-4.5,12.1-15.2,23.8-27.3,27.3c-12.1,3-26.3,1.5-34.9-6.1c-11.1-9.6-18.7-21.7-16.7-36.9
		c1-14.2,11.6-26.8,24.2-32.9C1537.1,440.4,1555.8,443.9,1567.5,456.6z"/>
	<path class="st2" d="M977.5,463.6c6.1,8.1,6.1,21.7,2.5,31.9c-5.6,10.1-16.2,18.7-26.8,19.7c-10.6,1-21.2-2.5-28.3-9.6
		c-7.6-8.1-12.1-18.2-9.6-29.3c1.5-12.1,11.1-23.8,23.3-27.3C953.2,443.9,969.4,450.5,977.5,463.6z M1563.4,461.6
		c8.1,9.1,9.1,22.8,5.5,34.4c-3.5,10.1-13.6,18.2-23.2,20.7c-12.1,2.5-24.8-1-32.4-10.1c-7.6-8.6-11.1-19.7-7.6-31.3
		c3-13.1,13.6-24.3,27.8-25.3C1545.2,448,1554.8,454,1563.4,461.6L1563.4,461.6z"/>
	<path class="st0" d="M1820.3,484.9c3.5,3,5.1,9.1,8.6,12.1c-1,4.5,0,11.1-1.5,16.7c-4.5,8.6-13.6,15.7-22.8,16.2
		c-8.1-1-15.7-2.5-19.7-8.6c-5.4-5.4-7.7-13.2-6.1-20.7c0-7.1,4.1-13.2,10.6-17.2C1797,476.8,1811.7,477.8,1820.3,484.9
		L1820.3,484.9z M707,496c5,8.1,4,20.7-2,28.3c-6.6,8.1-17.7,10.6-27.3,8.1c-7.3-2.9-13-8.8-15.7-16.2c-2.6-6.6-1.5-14.7,2-20.7
		c4.1-6.6,11.1-11.6,19.2-12.1C692.9,482.3,703,486.9,707,496L707,496z"/>
	<path class="st2" d="M1819.2,493.5c3.1,6.1,3.5,15.7-0.5,22.3c-4.6,4.5-9.6,7.1-14.7,7.6c-6.6-0.5-12.1-2.5-15.7-7.1
		c-4.5-5.1-4.5-13.6-2-19.2c2-7.1,9.1-11.1,16.2-11.6C1808.6,484.9,1814.2,488.4,1819.2,493.5z M701,497.5c3.5,4.6,3.5,12.1,2,17.7
		c-2.5,5.5-8.1,11.1-14.2,11.6c-6.6,0.5-12.1-1-16.2-5.1c-4.1-4.1-6-9.9-5.1-15.7c0.5-8.1,6.6-14.1,14.7-16.2
		C688.8,487.9,695.9,492,701,497.5z"/>
	<path class="st0" d="M1246.5,489.9c1,22.7,12.7,44.5,33.4,56.1l-0.5,5.1c-24.8,0-51.1,0-75.3,1c-2-2-2.5-6.1,1.5-6.6
		c18.7-11.6,33.4-32.4,34.9-54.6C1241.9,489.4,1243.9,489.4,1246.5,489.9L1246.5,489.9z"/>
	<path class="st3" d="M1266.7,545l-1,0.5c-16.7-1-32.3-0.5-47.5,0c11.1-10.1,20.2-21.2,25.3-34.9
		C1249,522.8,1254.6,535.9,1266.7,545z"/>
	<path class="st0" d="M1127.2,534.4c7.1,7.6,16.7,12.6,26.8,16.2v5.6c-25.8,3-52.6,7.1-76.8,11.6c-8.6-7.6,5.6-10.1,8.1-15.2
		c7.1-8.6,10.6-19.2,14.7-28.8c5.6,0,11.1-3.1,16.7-3.1L1127.2,534.4L1127.2,534.4z M1389,522.3c5.6,12.6,9.1,27.8,22.3,37.4
		c1,2-1.5,3.5-1.5,5.6c-24.3-3.5-49.1-8.1-72.8-9.6c-5.5-9.6,8.6-7.1,12.6-12.6c8.1-6.1,14.7-14.7,20.2-22.3
		C1375.9,522.3,1381.9,523.8,1389,522.3z M972.4,525.8c8.1,20.7,25.8,42,49,47c1,1,0.5,3.5,0.5,5.6l-81.4,21.2
		c-7.1-7.1,6.6-8.6,8.1-14.2c12.6-16.2,19.2-35.9,16.7-57.1C966.9,526.8,969.4,525.8,972.4,525.8L972.4,525.8z M1521.5,528.8
		c-1.5,22.7,4.6,45,22.3,60.7c1.5,2,7.1,4.6,4,8.1l-2,1c-25.8-7.6-50.1-15.1-75.3-21.2c-2.6-8.6,8.6-6.6,13.1-10.1
		c14.6-8.6,28.8-23.8,33.3-39.9L1521.5,528.8L1521.5,528.8z"/>
	<path class="st3" d="M1125.1,541.5l13.6,10.1l-50.6,7.6c6.6-9.1,12.6-18.7,16.2-29.3c3-1,6.6-2,9.6-1.5L1125.1,541.5L1125.1,541.5z
		 M1384.5,529.9c3,9.1,8.6,18.2,14.7,26.8c-15.2-2-32.4-4.5-49.1-6.1c8.1-5.1,16.2-14.2,23.3-22.7L1384.5,529.9z"/>
	<path class="st0" d="M1832.4,530.9v0.5h-1C1830.4,530.4,1831.9,529.9,1832.4,530.9z"/>
	<path class="st3" d="M1008.3,574.9c-17.7,4.5-36.9,9.6-54.1,14.6c10.9-13.7,17.3-30.5,18.2-48C981,555.1,993.2,568.8,1008.3,574.9z
		 M1533.1,588c-17.2-4-33.4-10.6-49.5-13.6c11.6-6.6,24.7-15.7,31.8-28.8C1516.4,561.7,1523,575.4,1533.1,588z"/>
	<path class="st0" d="M1831.9,567.8c8.6,10.6,10.6,25.3,6,38.9c-5.5,12.7-18.2,22.8-30.8,24.3c-13.6,1.5-25.8-3-34.4-12.1
		c-9-9.8-12.2-23.6-8.6-36.4c3.5-15.2,17.2-26.8,32.4-28.8C1809.1,552.1,1823.3,555.6,1831.9,567.8L1831.9,567.8z"/>
	<path class="st2" d="M1830.9,577.4c1.5,4.6,2,10.6,3.5,16.7c-2,11.6-9.6,24.3-20.7,28.8c-11.6,4-23.8,2-32.4-4.6
		c-8.6-7.6-11.6-16.2-11.6-26.3c0-13.6,8.6-26.3,22.2-30.3C1806.6,555.6,1823.3,563.2,1830.9,577.4z"/>
	<path class="st0" d="M725.2,579.4c7.1,9.1,8.6,23.8,4.6,35.4c-5.6,11.6-18.2,22.7-31.4,24.8c-11.6,0-22.2-2.5-31.3-10.1
		c-10.1-10.6-16.2-24.8-11.6-39.9c4.6-14.6,19.2-27.3,34.9-27.8C704,560.2,717.2,567.3,725.2,579.4L725.2,579.4z"/>
	<path class="st2" d="M718.2,579.9c7.1,9.1,9.1,22.7,4.5,33.9c-4.5,8.7-12,15.4-21.2,18.7c-8.6,2-17.2-0.5-24.8-4.5
		c-10.1-6.6-16.2-17.7-15.7-29.3c0-11.6,7.6-21.7,17.2-27.3C691.4,564.7,708.1,567.3,718.2,579.9L718.2,579.9z"/>
	<path class="st0" d="M1636.7,676l41.5,17.7c3.5,3,6.6,8.1,4.5,13.6c-2,4.1-7.1,5.1-9.6,8.1l6.1,26.8c-10.1,5.6-20.2,11.6-28.8,18.7
		c1,4.1,1.5,9.1-0.5,13.6c-4,3.5-9.1,6.1-13.6,4c-4.5-2-7.1-4.5-10.6-5.5c-103.1-47-214.9-81.4-332.7-81.4
		c-75.3-2-145.6,0-217.4,14.7c-80.9,15.2-156.7,45.5-229.5,80.9c-5.4,1.4-11.1-0.3-14.7-4.6c-3.5-5.1-2-12.1-0.5-16.7l-25.3-17.7
		c1-9.1,3-18.7,4.5-27.8c-4.5-2-10.6-3-12.1-8.6c-0.5-3.5-0.5-8.6,2.5-11.6c9.1-6.1,20.2-9.1,30.8-13.1
		c130.9-54.1,270-97.6,418.6-97.6C1386,588.5,1514.9,626.4,1636.7,676L1636.7,676z M1655.4,597.1c1,16.2,6.1,31.9,18.2,45
		c-3,9.6-9.6-1-14.2,0c-22.2-10.6-45-19.7-66.7-27.8c-2.5-1.5-1-4,0-5.6c15.2-2,32.9-6.1,46-17.7
		C1643.8,592.5,1648.9,595.6,1655.4,597.1z M892.6,609.7c0.5,1,1.5,3.1,1,5.6c-25.8,9.6-51.6,17.2-75.8,29.3l-6.6,1.5
		c1-4.6,6.1-7.6,8.6-11.6c6.6-9.6,9.6-21.2,10.6-32.9c5.6-3,11.1-5,16.2-9.1C860.2,601.6,875.4,609.2,892.6,609.7z"/>
	<path class="st1" d="M1594.3,665.9c25.8,9.1,52.1,20.7,78.4,31.9c2,1,4,4.6,3,7.6l-5.5,3.5l-41.5,13.1c4,14.7,10.6,28.8,16.7,44
		c0,3.5-3.1,6.1-5.5,7.1c-99.6-46-205.8-82.9-317.5-86.9c-105.6-6.1-214.3,0-312.4,29.8c-57.6,16.7-112.7,39.4-166.3,65.2
		c-4,1-6.1-1.5-7.6-3.5c1-15.2,9.6-27.8,13.6-41.5l4.6-11.1c-15.2-5-30.8-9-46.5-12.1c-3-1.5-4.6-5.6-2.5-8.1l8.1-4.1
		c148.1-61.2,307.9-113.2,476.2-103.6C1393.6,601.1,1496.7,629.5,1594.3,665.9L1594.3,665.9z"/>
	<path class="st3" d="M1649.4,601.6c2,11.1,4.1,22.8,10.6,32.9c-17.2-7.1-34.9-14.7-51.1-21.2c11.1-3.1,21.5-8,30.9-14.7
		L1649.4,601.6L1649.4,601.6z M876.9,613.8l-47.5,18.7c2-7.6,5.1-17.7,7.1-26.3l10.6-5.6C856.2,606.2,866.3,611.8,876.9,613.8z"/>
	<path class="st0" d="M1321.8,642.6c1,2-2.5,2-3.5,3l-74.3,23.3l-78.9-24.3v-1.5c26.8-10.1,53.1-21.2,80.4-31.4
		C1270.7,620.9,1296,632.5,1321.8,642.6L1321.8,642.6z M1762.6,613.8l-1.5-1l1.5,0.5V613.8z"/>
	<path class="st3" d="M1304.1,642.6l-60.7,19.7l-59.1-18.7v-1l61.2-23.8C1265.2,625.4,1284.4,634.5,1304.1,642.6z"/>
	<path class="st0" d="M1390,635.5c2.7,6.9,3.4,14.4,2,21.7c-3.5,10.1-14.7,17.2-24.3,19.2c-11.1,0.5-20.2-4-25.8-11.6
		c-4.5-5.6-6.1-11.6-5.5-18.7c0.5-10.6,9.1-20.7,19.2-23.8C1367.8,617.8,1382.5,623.4,1390,635.5L1390,635.5z M1146.9,638.5
		c3,9.1,2.5,22.3-5.1,30.3c-6.6,5.6-14.7,8.6-22.7,7.6c-9.6-1.5-19.2-8.6-21.2-17.2c-4-10.1-1.6-21.6,6.1-29.3
		c6.6-6.6,17.2-9.6,26.8-6.1C1136.7,626.4,1143.8,631.5,1146.9,638.5L1146.9,638.5z"/>
	<path class="st2" d="M1381.5,635.5c3,4.1,5,10.1,4.5,16.2c-2,7.6-7.6,15.2-14.7,17.7c-7.9,1.9-16.2-0.2-22.2-5.6
		c-6.1-7.1-8.1-18.2-2.5-26.3c3.5-6.1,9.6-9.6,16.7-10.1C1369.8,627.4,1376.9,629.5,1381.5,635.5L1381.5,635.5z M1135.7,634
		c4.6,5.1,7.1,11.6,6.6,19.2c-2,6.1-5.6,13.1-11.6,15.7c-6.1,2.5-12.1,1.5-17.2-0.5c-8.1-5.1-12.6-13.6-10.6-23.3
		c1.5-7.6,7.6-14.7,15.7-16.2C1124.6,627.4,1130.7,629.5,1135.7,634L1135.7,634z"/>
	<path class="st0" d="M1492.7,644.1c22.2,14.6,43,32.8,65.7,48v1c-26.8,1.5-56.1,2-83.4,3.5c-23.3-15.2-46.5-27.8-68.3-43.5l1-1
		c27.3-3,53.1-5.1,80.9-8.6L1492.7,644.1L1492.7,644.1z M1078.1,654.2c-22.7,16.2-46.5,31.9-70.3,45l-78.9-4l-0.5-1l66.2-50
		l82.9,9.6L1078.1,654.2L1078.1,654.2z"/>
	<path class="st4" d="M1540.7,687.6c-22.2,0.5-43,2.5-65.2,2.5c-16.7-12.6-34.4-20.7-50.5-32.9c21.2-2,41.5-6.1,63.7-7.1
		C1506.8,660.3,1522.5,674.4,1540.7,687.6z M1061.4,658.3c-17.7,12.2-36.4,23.3-54.6,34.4l-60.7-2.5v-1l50.6-38.9
		C1018.5,652.2,1039.7,655.2,1061.4,658.3z"/>
	<path class="st0" d="M1624.6,698.7c4.6,8.6,2.5,22.3-3,30.8c-7.6,7.6-18.7,11.6-28.8,9.1c-9.6-2.5-17.7-11.1-20.2-19.2
		c-3-10.6,0-21.7,8.6-27.8c6.6-7.1,16.7-9.1,26.3-7.1C1613.5,687.1,1621.1,691.1,1624.6,698.7L1624.6,698.7z M905.7,695.2
		c5.1,5.6,7.6,13.1,7.1,21.2c-1.5,7.1-5.1,14.2-10.6,18.7c-8.6,5.6-19.2,7.1-28.3,3.5c-9.1-5-15.2-14.2-15.7-23.8
		c-1-11.6,5.6-20.2,14.7-25.8C883,683.5,897.1,686.1,905.7,695.2L905.7,695.2z"/>
	<path class="st2" d="M1620.1,704.3c1.5,6.1,0.5,13.6-2.5,19.7c-4.6,4-9.1,7.6-15.2,9.1c-7.6,0.5-13.6-2.5-18.2-6.6
		c-5.1-5.6-6.6-12.1-5.1-17.7c0-7.1,4.5-13.1,10.6-15.7c5-3,12.1-4.5,18.2-1C1612.5,694.2,1617.6,698.2,1620.1,704.3L1620.1,704.3z
		 M901.2,699.7c4,4.5,6.1,11.1,4.6,17.2c-1.2,6.6-5.3,12.4-11.1,15.7c-6.1,2-13.7,2.5-18.7,0c-8.1-5.1-12.1-14.2-10.6-22.2
		c0.5-7.1,5-12.1,10.6-15.7C884,690.6,894.6,692.7,901.2,699.7L901.2,699.7z"/>
	<path class="st0" d="M1655,792.8c106.7,54.1,204.7,134,284.6,231c50,66.7,97.6,136.5,129.9,212.8c46.5,114.3,73.3,238.6,72.8,373.1
		c-5.1,144.1-37.9,278.5-99.6,401.4c-30.8,58.6-70.8,114.2-111.7,169.4c-72.3,82.9-157.2,154.2-249.2,206.8
		c-160.3,89-346.8,127.4-535.4,107.7c-118.8-15.7-231-50.5-333.2-107.7c-35.4-19.7-68.2-44.5-101.1-66.2
		c-68.2-52.6-127.9-115.8-180.5-184c-9.1-15.1-18.9-29.8-29.3-44c-48.5-73.3-82.4-152.2-108.2-233.1c-37.9-134-49-290.2-20.2-429.7
		c13.1-87,44-165.3,80.9-241.2c19.2-36.4,39.9-72.3,63.7-105.1c17.2-30.3,40.9-55.6,63.2-82.4c64.2-75.3,141.5-136.5,223.5-185.5
		c159.7-92,342.2-135,535.9-115.8C1452.7,710.9,1556.9,743.2,1655,792.8L1655,792.8z"/>
	<path class="st1" d="M1721.2,838.3c95.5,60.7,181,140,248.2,236.1c98.1,135.5,151.2,290.7,163.8,463.1
		c9.6,171.4-26.8,334.7-100.1,478.3c-40.4,69.8-86,140.5-144.6,201.7c-193.1,201.7-461.6,299.8-737.1,272
		c-164.3-19.2-316-80.9-446.9-182c-61.2-48.5-116.3-107.7-162.3-166.9c-16.2-21.2-27.3-44-43-63.7c-33.9-53.1-58.1-109.2-80.9-165.3
		c-44.5-119.3-62.2-254.3-50.6-389.3c9.6-121.8,43-233.1,96.1-335.7c0.5-0.5,2.5,0,2.5-1l-1-1.5c14.2-26.8,28.3-52.6,45-77.3
		c10.1-13.1,16.2-27.8,26.8-40.4c46.5-59.7,96.6-117.8,156.2-164.3c29.3-25.8,61.2-45.5,92.5-66.2c15.2-13.6,34.4-18.7,50.6-29.8
		c200.2-109.2,456-135.5,677.9-63.7C1586.7,764.4,1656,797.8,1721.2,838.3L1721.2,838.3z"/>
	<path class="st3" d="M1671.6,739.2c-8.1,5.1-16.2,10.1-23.3,14.7c-4.5-9.1-9.1-18.2-11.1-27.8c9.1-3,18.2-5.5,28.3-8.6
		C1668.6,723,1669.6,731.6,1671.6,739.2L1671.6,739.2z M844.6,728.5c-3,10.1-8.1,20.2-11.6,30.8l-19.2-13.1c0-8.1,1.5-17.2,5-23.8
		L844.6,728.5z"/>
	<path class="st0" d="M1748,990.4c91,77.9,171.4,181,216.4,290.2c41.5,98.1,64.7,204.7,65.2,320.5c-1,137-39.4,259.8-95.6,375.1
		c-67.2,120.8-171.4,230.5-290.7,301.8c-64.7,37.4-133,65.2-205.3,85c-169.3,44-366.5,23.8-520.7-50.1
		c-42-20.2-81.4-44.5-120.3-70.3c-36.4-30.3-74.8-58.1-106.7-93.5c-50.1-51.6-89-107.7-121.3-165.3
		c-30.8-50.6-48.5-105.7-66.7-159.7c-32.9-109.2-41.5-242.2-20.2-358.5c10.1-64.2,30.8-123.3,52.6-181.5
		c36.9-80.9,82.9-157.7,148.1-225c36.4-43.5,80.4-76.3,124.4-109.7c14.7-8.1,27.3-19.7,42.5-27.3c157.2-97.6,359.4-135,548.5-98.6
		C1526.5,848.4,1643.3,905,1748,990.4L1748,990.4z"/>
	<path class="st2" d="M1656.5,932.3c4,3,0.5,0,4.5,3c135.5,84.9,247.7,219.9,304.8,366.5c33.9,87.4,55.1,182.5,56.6,284.6
		c1.5,123.4-26.8,236.1-72.8,341.2c-31.4-32.8-63.7-64.2-94-94c3.1-15.7,9.1-30.3,14.2-44.5c35.9-112.7,38.4-251.3,6.1-366
		c-17.7-65.2-45.5-125.9-80.9-183c-59.2-90.5-142.1-169.4-234.6-217.9c-22.8,21.7-43.5,46.5-65.7,69.3c-31.8,32.9-65.2,65.2-95,98.6
		c-64.7-24.8-138.5-32.4-207.3-23.2l-8.6-7.6l-36.9-36.4l-111.2-111.7L931,907l-13.1-13.6l3-2c161.3-78.9,363.5-97.6,541.4-46
		C1530.1,866.1,1596.3,892.3,1656.5,932.3L1656.5,932.3z"/>
	<path class="st5" d="M1024.5,1009.1l46.5,47l101.1,101.1l10.6,10.6c-33.9,4-64.7,14.7-95,26.3l-35.9-35.4
		c-44-42-87-85.9-130.4-126.9c-60.7,34.9-116.3,78.4-163.3,134.5c-49.5,52.1-81.4,113.2-110.2,174.9l-1.5-0.5l-88.5-89.5
		c24.3-48.5,52.6-95.6,86.9-139c24.8-30.3,50.6-60.7,78.4-86.4c35.9-30.3,70.3-62.7,110.2-85.9c24.3-16.2,50.5-30.3,76.8-43.5l1,0.5
		L1024.5,1009.1L1024.5,1009.1z"/>
	<path class="st1" d="M1760.1,1202.3c87,117.8,133.5,254.8,132,410.5c-4.6,110.7-34.4,213.8-86,307.4c-1-2-2-0.5-2.5,0l0.5,3.5
		c-51.5,92-133.5,172.4-220.9,230.5l-7.1,3.5l-0.5-2l0.5-126.9c81.9-64.2,145.1-153.2,178.5-247.2c26.8-72.8,35.4-156.2,29.8-237.1
		c-9.6-103.1-47-194.6-106.7-274.5c-28.8-37.9-63.7-73.3-99.6-101.1h-1.5c-26.1,24.6-51.2,50.2-75.3,76.8
		c-29.8-21.7-63.2-39.4-94.5-53.1c36.8-40,74.4-79.3,112.7-117.8l43-44C1637.7,1071.3,1705,1132,1760.1,1202.3L1760.1,1202.3z
		 M1175.2,1290.7c22.8,21.3,45.2,43.1,67.2,65.2c0.5,1-0.5,3.5,2,5c21.8-21.2,43.5-47,66.2-68.2c7.1-2,13.7,2,21.2,3.5
		c28.3,8.6,56.1,18.7,81.4,36.9l-1.5,3l-30.8,31.4L1251,1499.5l-6.1,6.6c-22.2-17.2-38.4-38.9-58.1-56.6
		c-69.3-67.7-135.5-138-204.7-204.7l-71.3-71.8l-4.1,2c-0.5-1-1-2-1.5-1c-28.3,22.3-56.1,49.5-77.8,78.9
		c-44.5,49-71.3,107.7-93.5,167.8c-43,117.8-39.4,270.5,12.1,384.7c15.2,36.9,34.9,72.8,57.1,108.2c17.2,19.2,32.9,41.5,51.6,61.2
		c18.7,18.7,37.9,36.9,59.7,54.1l-0.5,128.4c-41.5-24.8-80.4-56.1-116.3-88c-33.9-37.4-67.2-75.3-93-114.8
		c-38.4-66.2-71.3-133.5-86.4-207.8c-35.4-153.7-11.6-325.1,61.7-454.5c28.8-61.7,76.3-114.8,123.3-165.3
		c26.8-24.3,55.6-47.5,86-67.7l31.8-19.2C1006.3,1122.9,1090.2,1206.3,1175.2,1290.7L1175.2,1290.7z"/>
	<path class="st1" d="M1471.9,1233.6c25.8,16.5,49.9,35.7,71.8,57.1v2.5c-25.3,24.8-51.1,49.1-75.3,74.3
		c-6.6-5.6-13.6-11.6-19.2-16.7c-41-33.4-86-56.1-135.5-66.2c-44-8.6-91.5-9.6-134.5,0.5c-31.3-28.8-56.6-57.1-85.4-85.4
		C1213.6,1149.2,1363.8,1162.8,1471.9,1233.6L1471.9,1233.6z"/>
	<path class="st2" d="M1606.9,1201.2c90,83.9,146.1,190.6,166.3,308.9c10.1,68.8,7.1,145.6-7.6,211.8l-5.5,15.7
		c-52.1-54.1-106.7-105.2-156.2-157.2c-29.8-30.3-61.7-59.6-89-89l-102.1-102.6l-20.7-22.2c8.1-11.1,17.2-19.7,26.8-28.8
		c17.6,10.7,33.7,23.6,48,38.4h2.5c27.7-28,55.7-55.8,83.9-83.4l-0.5-2c-14.7-15.7-31.8-28.3-45.5-42c21.7-24.8,46-49,70.3-71.3
		C1587.2,1183.5,1596.8,1192.7,1606.9,1201.2L1606.9,1201.2z"/>
	<path class="st5" d="M983.1,1254.3l-1,2.5c-83.3,64.3-139.7,157.3-158.2,260.9c-13.7-10.6-27.3-24.8-37.9-36.9
		c-1.5-1.5-1.5-5.1-4-3l-44-45c15.2-49.5,37.4-96.1,65.2-139.6c16.2-20.2,31.4-43,49.6-60.7c16.7-19.2,35.4-37.4,55.1-52.1h2
		L983.1,1254.3L983.1,1254.3z"/>
	<path class="st0" d="M570,1209.3v0.5l-0.5-1.5C569.5,1208.3,570,1208.3,570,1209.3z"/>
	<path class="st2" d="M644.3,1348.4c-61.7,144.1-65.7,340.2-6.6,488.9c27.8,65.2,61.2,128.9,110.7,186.6
		c16.7,19.2,36.9,40.4,55.6,60.1c35.4,30.4,74.3,61.2,115.8,84.4l1-3l0.5-138l-2-3.1c-29.3-22.7-56.6-50.5-81.4-77.8
		c-25.8-31.8-48.5-63.7-65.2-98.1c-57.1-109.2-78.4-245.7-48-372.6l10.1-35.4l4.6,3.1c28.8,26.3,53.1,56.6,82.4,82.9
		c-7.6,41.9-8.1,92-1,137c6.6,44.5,18.7,87,38.9,126.9c38.4,77.4,106.2,151.7,185.5,191.6c26.8,15.2,56.1,26.3,86.9,35.9v192.6
		c41,0,76.8-0.5,115.8,0l0.5-3.1l0.5-173.9c24.8-2,47.5-3.5,72.3-7.1l65.7,65.7c54.6,57.2,112.2,111.7,167.8,170.4
		c12.7,11.6,24.3,22.2,37.4,36.4c-171.9,87.4-385.8,105.1-570.8,47.5c-72.8-23.8-141-55.1-204.2-98.1c-25.3-15.7-48-36.9-70.8-54.6
		c-53.6-47-102.6-102.1-139.5-159.3c-33.9-53.1-63.7-107.2-82.9-164.8c-12.1-37.4-24.3-74.3-31.3-112.7
		c-25.3-119.3-18.7-256.3,13.7-369.6c14.6-44,25.3-89.5,48-128.9C585.7,1286.7,613.5,1317,644.3,1348.4L644.3,1348.4z"/>
	<path class="st1" d="M1064,1335.7v1c-107.2,74.3-156.7,204.2-126.9,333.2c16.7,76.3,66.2,147.6,136.5,194.1
		c81.4,53.6,193.1,64.7,286.7,29.3c37.4-13.6,70.8-38.9,102.6-64.2c24.2,25.3,50.5,49.1,75.8,77.9c-26.8,30.3-63.2,51-97.6,71.8
		c-113.2,61.7-266.9,62.2-381.7,3.5c-48.5-24.8-93-58.1-129.4-99.6c-62.2-70.3-98.6-152.7-105.1-246.2
		c-6.6-90,10.6-176.4,52.6-248.7c27.3-47.5,66.2-94.6,110.2-127.4C1012.9,1285.1,1039.2,1308.4,1064,1335.7z"/>
	<path class="st5" d="M1303.1,1289.7c-5.5,6.6-13.1,13.2-18.7,20.7c-12.7,12.1-25.3,25.8-37.9,38.9c-21.2-17.7-39.9-39.4-60.2-58.6
		C1223.7,1282.1,1263.6,1282.1,1303.1,1289.7L1303.1,1289.7z M1211.6,1484.3c10.6,10.1,20.2,20.7,32.4,30.8l2.5-1.5
		c46.5-49,91.5-95.5,140-142.1c14.2,13.1,28.3,29.3,44,44.5c27.8,25.8,54.1,56.1,83.4,82.9c28.3,29.8,57.1,58.6,88.5,89l99.1,100.1
		l56.6,57.1c-16.2,56.1-40,109.2-73.3,159.3c-33.4,44.5-70.3,86.9-115.3,120.8l-1,4.1v139l1.5,1c110.7-66.2,207.3-170.4,262.4-285.1
		l19.7-44.5c30.9,30.4,63.2,61.2,94.6,95c-22.8,49.1-52.1,95-85.4,140.5c-71.3,91.5-162.3,167.9-262.4,220.4
		c-35.4-36.4-70.3-68.7-104.1-104.1l-97.6-98.6c-22.2-22.8-44.8-45.2-67.7-67.2l1.5-1.5c80.9-16.7,154.2-55.6,215.9-114.7
		c2-2.5-0.5-5.1-1.5-5.6c-27.3-29.8-55.6-56.6-81.9-84.4c-42.5,37.9-91,66.3-144.1,79.9c-23.2,5.1-46,7.1-69.3,8.6l-1-2l0.5-82.4
		l79.9-0.5l1.5-3.5l-0.5-109.2l-2.5-1h-82.4c-1.5-17.7-1-36.4-0.5-53.1l112.2-1l1-2.5l-0.5-108.2h-205.2l-18.7,0.5l-1,8.1l-0.5,275
		c-47.5-48.5-97.1-99.6-146.6-147.1l-47-47.5c-9.6-64.7,4.5-130.9,33.9-184.5c20.7-42.5,57.6-80.4,96-107.7
		C1117.6,1387.3,1162.5,1437.8,1211.6,1484.3L1211.6,1484.3z"/>
	<path class="st0" d="M383.5,1370.1l-0.5-1l0.5,0.5V1370.1L383.5,1370.1z M2143.8,1538.9c-0.5,0-1.5,1-1,1v-2
		C2142.8,1537.4,2143.3,1537.9,2143.8,1538.9z"/>
	<path class="st1" d="M1351.1,1552.6c0,32.8-1,62.7-0.5,96.1c-36.4,0.5-73.3-0.5-111.7,0.5c-2.5,21.2-1.5,43-1,65.2l1.5,1.5h84.4
		v100.6l-2,0.5h-78.4l-1,1.5l-0.5,89c-35.4-1-70.3-7.1-102.1-18.2v-337.7c69.8-2,139-1,210.3-1L1351.1,1552.6L1351.1,1552.6z"/>
	<path class="st0" d="M356.7,1642.6l-0.5-1C356.7,1640.5,356.7,1641.6,356.7,1642.6z"/>
	<path class="st2" d="M1084.7,1789.7l47.5,47.5v49.6c-78.9-31.4-152.2-103.1-178.5-182.5c-6.6-20.2-13.1-40.4-14.1-60.2
		C986.6,1693.7,1038.2,1739.7,1084.7,1789.7L1084.7,1789.7z"/>
	<path class="st0" d="M1756,1730.5l-0.5-0.5h0.5V1730.5z M2104.9,1877.2v1V1877.2z"/>
	<path class="st1" d="M1241.4,2032.9l0.5,13.1l-0.5,158.7l-102.1-0.5l0.5-184.5C1171.6,2026.8,1206.5,2032.4,1241.4,2032.9
		L1241.4,2032.9z"/>
	<path class="st0" d="M1870.3,2231l-0.5,0.5v-1.5C1869.8,2229,1869.8,2230,1870.3,2231L1870.3,2231z M1347.6,2383.2h-1.5l0.5-1.5
		C1347.1,2380.7,1347.1,2381.7,1347.6,2383.2z M1474.5,2460.5v1V2460.5z"/>
</g>
</svg>
