<?xml version="1.0" encoding="utf-8"?>
<!-- Generator: Adobe Illustrator 23.0.0, SVG Export Plug-In . SVG Version: 6.00 Build 0)  -->
<svg version="1.1" id="Layer_1" xmlns="http://www.w3.org/2000/svg" xmlns:xlink="http://www.w3.org/1999/xlink" x="0px" y="0px"
	 viewBox="0 0 1000 1000" style="enable-background:new 0 0 1000 1000;" xml:space="preserve">
<style type="text/css">
	.st0{fill:#B8BABC;}
	.st1{fill:#B8BABC;stroke:#000000;stroke-width:0.691;stroke-miterlimit:2.6131;}
	.st2{fill:#FFFFFF;}
</style>
<g>
	<path class="st0" d="M614.1,278.5c0-6.8,5.5-12.3,12.3-12.3c6.8,0,12.3,5.5,12.3,12.3c0,6.8-5.5,12.3-12.3,12.3
		C619.6,290.8,614.1,285.3,614.1,278.5L614.1,278.5z"/>
	<path class="st1" d="M614.1,278.5c0-6.8,5.5-12.3,12.3-12.3c6.8,0,12.3,5.5,12.3,12.3c0,6.8-5.5,12.3-12.3,12.3
		C619.6,290.8,614.1,285.3,614.1,278.5L614.1,278.5L614.1,278.5z"/>
	<path class="st0" d="M611.9,527.6c0-6.8,5.5-12.3,12.3-12.3c6.8,0,12.3,5.5,12.3,12.3c0,6.8-5.5,12.3-12.3,12.3
		C617.4,539.9,611.9,534.4,611.9,527.6L611.9,527.6z"/>
	<path class="st1" d="M611.9,527.6c0-6.8,5.5-12.3,12.3-12.3c6.8,0,12.3,5.5,12.3,12.3c0,6.8-5.5,12.3-12.3,12.3
		C617.4,539.9,611.9,534.4,611.9,527.6L611.9,527.6L611.9,527.6z"/>
	<path class="st0" d="M684.2,527.6c0-6.8,5.5-12.3,12.3-12.3c6.8,0,12.3,5.5,12.3,12.3c0,6.8-5.5,12.3-12.3,12.3
		C689.7,539.9,684.2,534.4,684.2,527.6L684.2,527.6z"/>
	<path class="st1" d="M684.2,527.6c0-6.8,5.5-12.3,12.3-12.3c6.8,0,12.3,5.5,12.3,12.3c0,6.8-5.5,12.3-12.3,12.3
		C689.7,539.9,684.2,534.4,684.2,527.6L684.2,527.6L684.2,527.6z"/>
	<path class="st0" d="M686.4,278.5c0-6.8,5.5-12.3,12.3-12.3c6.8,0,12.3,5.5,12.3,12.3c0,6.8-5.5,12.3-12.3,12.3
		C691.9,290.8,686.4,285.3,686.4,278.5L686.4,278.5z"/>
	<path class="st1" d="M686.4,278.5c0-6.8,5.5-12.3,12.3-12.3c6.8,0,12.3,5.5,12.3,12.3c0,6.8-5.5,12.3-12.3,12.3
		C691.9,290.8,686.4,285.3,686.4,278.5L686.4,278.5L686.4,278.5z"/>
	<path class="st0" d="M531.4,465.5c0-6.8,5.5-12.3,12.3-12.3c6.8,0,12.3,5.5,12.3,12.3s-5.5,12.3-12.3,12.3
		C536.9,477.8,531.4,472.3,531.4,465.5L531.4,465.5z"/>
	<path class="st1" d="M531.4,465.5c0-6.8,5.5-12.3,12.3-12.3c6.8,0,12.3,5.5,12.3,12.3c0,6.8-5.5,12.3-12.3,12.3
		C536.9,477.8,531.4,472.3,531.4,465.5L531.4,465.5L531.4,465.5z"/>
	<path class="st0" d="M567.6,465.5c0-6.8,5.5-12.3,12.3-12.3c6.8,0,12.3,5.5,12.3,12.3s-5.5,12.3-12.3,12.3
		C573.1,477.8,567.6,472.3,567.6,465.5L567.6,465.5z"/>
	<path class="st1" d="M567.6,465.5c0-6.8,5.5-12.3,12.3-12.3c6.8,0,12.3,5.5,12.3,12.3c0,6.8-5.5,12.3-12.3,12.3
		C573.1,477.8,567.6,472.3,567.6,465.5L567.6,465.5L567.6,465.5z"/>
	<path class="st0" d="M603.7,465.5c0-6.8,5.5-12.3,12.3-12.3c6.8,0,12.3,5.5,12.3,12.3s-5.5,12.3-12.3,12.3
		C609.2,477.8,603.7,472.3,603.7,465.5L603.7,465.5z"/>
	<path class="st1" d="M603.7,465.5c0-6.8,5.5-12.3,12.3-12.3c6.8,0,12.3,5.5,12.3,12.3c0,6.8-5.5,12.3-12.3,12.3
		C609.2,477.8,603.7,472.3,603.7,465.5L603.7,465.5L603.7,465.5z"/>
	<path class="st0" d="M639.9,465.5c0-6.8,5.5-12.3,12.3-12.3c6.8,0,12.3,5.5,12.3,12.3s-5.5,12.3-12.3,12.3
		C645.4,477.8,639.9,472.3,639.9,465.5L639.9,465.5z"/>
	<path class="st1" d="M639.9,465.5c0-6.8,5.5-12.3,12.3-12.3c6.8,0,12.3,5.5,12.3,12.3c0,6.8-5.5,12.3-12.3,12.3
		C645.4,477.8,639.9,472.3,639.9,465.5L639.9,465.5L639.9,465.5z"/>
	<path class="st0" d="M712.2,465.5c0-6.8,5.5-12.3,12.3-12.3c6.8,0,12.3,5.5,12.3,12.3s-5.5,12.3-12.3,12.3
		C717.7,477.8,712.2,472.3,712.2,465.5L712.2,465.5z"/>
	<path class="st1" d="M712.2,465.5c0-6.8,5.5-12.3,12.3-12.3c6.8,0,12.3,5.5,12.3,12.3c0,6.8-5.5,12.3-12.3,12.3
		C717.7,477.8,712.2,472.3,712.2,465.5L712.2,465.5L712.2,465.5z"/>
	<path class="st0" d="M748.4,465.5c0-6.8,5.5-12.3,12.3-12.3c6.8,0,12.3,5.5,12.3,12.3s-5.5,12.3-12.3,12.3
		C753.9,477.8,748.4,472.3,748.4,465.5L748.4,465.5z"/>
	<path class="st1" d="M748.4,465.5c0-6.8,5.5-12.3,12.3-12.3c6.8,0,12.3,5.5,12.3,12.3c0,6.8-5.5,12.3-12.3,12.3
		C753.9,477.8,748.4,472.3,748.4,465.5L748.4,465.5L748.4,465.5z"/>
	<path class="st0" d="M559,496.5c0-6.8,5.5-12.3,12.3-12.3c6.8,0,12.3,5.5,12.3,12.3c0,6.8-5.5,12.3-12.3,12.3
		C564.5,508.9,559,503.4,559,496.5L559,496.5z"/>
	<path class="st1" d="M559,496.5c0-6.8,5.5-12.3,12.3-12.3c6.8,0,12.3,5.5,12.3,12.3c0,6.8-5.5,12.3-12.3,12.3
		C564.5,508.9,559,503.4,559,496.5L559,496.5L559,496.5z"/>
	<path class="st0" d="M595.2,496.5c0-6.8,5.5-12.3,12.3-12.3c6.8,0,12.3,5.5,12.3,12.3c0,6.8-5.5,12.3-12.3,12.3
		C600.7,508.9,595.2,503.4,595.2,496.5L595.2,496.5z"/>
	<path class="st1" d="M595.2,496.5c0-6.8,5.5-12.3,12.3-12.3c6.8,0,12.3,5.5,12.3,12.3c0,6.8-5.5,12.3-12.3,12.3
		C600.7,508.9,595.2,503.4,595.2,496.5L595.2,496.5L595.2,496.5z"/>
	<path class="st0" d="M631.3,496.5c0-6.8,5.5-12.3,12.3-12.3c6.8,0,12.3,5.5,12.3,12.3c0,6.8-5.5,12.3-12.3,12.3
		C636.8,508.9,631.3,503.4,631.3,496.5L631.3,496.5z"/>
	<path class="st1" d="M631.3,496.5c0-6.8,5.5-12.3,12.3-12.3c6.8,0,12.3,5.5,12.3,12.3c0,6.8-5.5,12.3-12.3,12.3
		C636.8,508.9,631.3,503.4,631.3,496.5L631.3,496.5L631.3,496.5z"/>
	<path class="st0" d="M703.7,496.5c0-6.8,5.5-12.3,12.3-12.3s12.3,5.5,12.3,12.3c0,6.8-5.5,12.3-12.3,12.3S703.7,503.4,703.7,496.5
		L703.7,496.5z"/>
	<path class="st1" d="M703.7,496.5c0-6.8,5.5-12.3,12.3-12.3s12.3,5.5,12.3,12.3c0,6.8-5.5,12.3-12.3,12.3S703.7,503.4,703.7,496.5
		L703.7,496.5L703.7,496.5z"/>
	<path class="st0" d="M739.8,496.5c0-6.8,5.5-12.3,12.3-12.3c6.8,0,12.3,5.5,12.3,12.3c0,6.8-5.5,12.3-12.3,12.3
		C745.3,508.9,739.8,503.4,739.8,496.5L739.8,496.5z"/>
	<path class="st1" d="M739.8,496.5c0-6.8,5.5-12.3,12.3-12.3c6.8,0,12.3,5.5,12.3,12.3c0,6.8-5.5,12.3-12.3,12.3
		C745.3,508.9,739.8,503.4,739.8,496.5L739.8,496.5L739.8,496.5z"/>
	<path class="st0" d="M543.3,403.2c0-6.8,5.5-12.3,12.3-12.3c6.8,0,12.3,5.5,12.3,12.3c0,6.8-5.5,12.3-12.3,12.3
		C548.7,415.5,543.3,410,543.3,403.2L543.3,403.2z"/>
	<path class="st1" d="M543.3,403.2c0-6.8,5.5-12.3,12.3-12.3c6.8,0,12.3,5.5,12.3,12.3c0,6.8-5.5,12.3-12.3,12.3
		C548.7,415.5,543.3,410,543.3,403.2L543.3,403.2L543.3,403.2z"/>
	<path class="st0" d="M579.4,403.2c0-6.8,5.5-12.3,12.3-12.3c6.8,0,12.3,5.5,12.3,12.3c0,6.8-5.5,12.3-12.3,12.3
		C584.9,415.5,579.4,410,579.4,403.2L579.4,403.2z"/>
	<path class="st1" d="M579.4,403.2c0-6.8,5.5-12.3,12.3-12.3c6.8,0,12.3,5.5,12.3,12.3c0,6.8-5.5,12.3-12.3,12.3
		C584.9,415.5,579.4,410,579.4,403.2L579.4,403.2L579.4,403.2z"/>
	<path class="st0" d="M615.6,403.2c0-6.8,5.5-12.3,12.3-12.3c6.8,0,12.3,5.5,12.3,12.3c0,6.8-5.5,12.3-12.3,12.3
		C621.1,415.5,615.6,410,615.6,403.2L615.6,403.2z"/>
	<path class="st1" d="M615.6,403.2c0-6.8,5.5-12.3,12.3-12.3c6.8,0,12.3,5.5,12.3,12.3c0,6.8-5.5,12.3-12.3,12.3
		C621.1,415.5,615.6,410,615.6,403.2L615.6,403.2L615.6,403.2z"/>
	<path class="st0" d="M687.9,403.2c0-6.8,5.5-12.3,12.3-12.3c6.8,0,12.3,5.5,12.3,12.3c0,6.8-5.5,12.3-12.3,12.3
		C693.4,415.5,687.9,410,687.9,403.2L687.9,403.2z"/>
	<path class="st1" d="M687.9,403.2c0-6.8,5.5-12.3,12.3-12.3c6.8,0,12.3,5.5,12.3,12.3c0,6.8-5.5,12.3-12.3,12.3
		C693.4,415.5,687.9,410,687.9,403.2L687.9,403.2L687.9,403.2z"/>
	<path class="st0" d="M724,403.2c0-6.8,5.5-12.3,12.3-12.3c6.8,0,12.3,5.5,12.3,12.3c0,6.8-5.5,12.3-12.3,12.3
		C729.5,415.5,724,410,724,403.2L724,403.2z"/>
	<path class="st1" d="M724,403.2c0-6.8,5.5-12.3,12.3-12.3c6.8,0,12.3,5.5,12.3,12.3c0,6.8-5.5,12.3-12.3,12.3
		C729.5,415.5,724,410,724,403.2L724,403.2L724,403.2z"/>
	<path class="st0" d="M760.2,403.2c0-6.8,5.5-12.3,12.3-12.3c6.8,0,12.3,5.5,12.3,12.3c0,6.8-5.5,12.3-12.3,12.3
		C765.7,415.5,760.2,410,760.2,403.2L760.2,403.2z"/>
	<path class="st1" d="M760.2,403.2c0-6.8,5.5-12.3,12.3-12.3c6.8,0,12.3,5.5,12.3,12.3c0,6.8-5.5,12.3-12.3,12.3
		C765.7,415.5,760.2,410,760.2,403.2L760.2,403.2L760.2,403.2z"/>
	<path class="st0" d="M525.8,434.2c0-6.8,5.5-12.3,12.3-12.3c6.8,0,12.3,5.5,12.3,12.3c0,6.8-5.5,12.3-12.3,12.3
		C531.3,446.5,525.8,441,525.8,434.2L525.8,434.2z"/>
	<path class="st1" d="M525.8,434.2c0-6.8,5.5-12.3,12.3-12.3c6.8,0,12.3,5.5,12.3,12.3c0,6.8-5.5,12.3-12.3,12.3
		C531.3,446.5,525.8,441,525.8,434.2L525.8,434.2L525.8,434.2z"/>
	<path class="st0" d="M562,434.2c0-6.8,5.5-12.3,12.3-12.3c6.8,0,12.3,5.5,12.3,12.3c0,6.8-5.5,12.3-12.3,12.3
		C567.5,446.5,562,441,562,434.2L562,434.2z"/>
	<path class="st1" d="M562,434.2c0-6.8,5.5-12.3,12.3-12.3c6.8,0,12.3,5.5,12.3,12.3c0,6.8-5.5,12.3-12.3,12.3
		C567.5,446.5,562,441,562,434.2L562,434.2L562,434.2z"/>
	<path class="st0" d="M598.1,434.2c0-6.8,5.5-12.3,12.3-12.3c6.8,0,12.3,5.5,12.3,12.3c0,6.8-5.5,12.3-12.3,12.3
		C603.6,446.5,598.1,441,598.1,434.2L598.1,434.2z"/>
	<path class="st1" d="M598.1,434.2c0-6.8,5.5-12.3,12.3-12.3s12.3,5.5,12.3,12.3c0,6.8-5.5,12.3-12.3,12.3S598.1,441,598.1,434.2
		L598.1,434.2L598.1,434.2z"/>
	<path class="st0" d="M634.3,434.2c0-6.8,5.5-12.3,12.3-12.3c6.8,0,12.3,5.5,12.3,12.3c0,6.8-5.5,12.3-12.3,12.3
		C639.8,446.5,634.3,441,634.3,434.2L634.3,434.2z"/>
	<path class="st1" d="M634.3,434.2c0-6.8,5.5-12.3,12.3-12.3c6.8,0,12.3,5.5,12.3,12.3c0,6.8-5.5,12.3-12.3,12.3
		C639.8,446.5,634.3,441,634.3,434.2L634.3,434.2L634.3,434.2z"/>
	<path class="st0" d="M706.6,434.2c0-6.8,5.5-12.3,12.3-12.3c6.8,0,12.3,5.5,12.3,12.3c0,6.8-5.5,12.3-12.3,12.3
		C712.1,446.5,706.6,441,706.6,434.2L706.6,434.2z"/>
	<path class="st1" d="M706.6,434.2c0-6.8,5.5-12.3,12.3-12.3c6.8,0,12.3,5.5,12.3,12.3c0,6.8-5.5,12.3-12.3,12.3
		C712.1,446.5,706.6,441,706.6,434.2L706.6,434.2L706.6,434.2z"/>
	<path class="st0" d="M742.8,434.2c0-6.8,5.5-12.3,12.3-12.3c6.8,0,12.3,5.5,12.3,12.3c0,6.8-5.5,12.3-12.3,12.3
		C748.3,446.5,742.8,441,742.8,434.2L742.8,434.2z"/>
	<path class="st1" d="M742.8,434.2c0-6.8,5.5-12.3,12.3-12.3c6.8,0,12.3,5.5,12.3,12.3c0,6.8-5.5,12.3-12.3,12.3
		C748.3,446.5,742.8,441,742.8,434.2L742.8,434.2L742.8,434.2z"/>
	<path class="st0" d="M778.9,434.2c0-6.8,5.5-12.3,12.3-12.3c6.8,0,12.3,5.5,12.3,12.3c0,6.8-5.5,12.3-12.3,12.3
		C784.4,446.5,778.9,441,778.9,434.2L778.9,434.2z"/>
	<path class="st1" d="M778.9,434.2c0-6.8,5.5-12.3,12.3-12.3c6.8,0,12.3,5.5,12.3,12.3c0,6.8-5.5,12.3-12.3,12.3
		C784.4,446.5,778.9,441,778.9,434.2L778.9,434.2L778.9,434.2z"/>
	<path class="st0" d="M552.6,340.8c0-6.8,5.5-12.3,12.3-12.3c6.8,0,12.3,5.5,12.3,12.3c0,6.8-5.5,12.3-12.3,12.3
		C558.1,353.2,552.6,347.6,552.6,340.8L552.6,340.8z"/>
	<path class="st1" d="M552.6,340.8c0-6.8,5.5-12.3,12.3-12.3c6.8,0,12.3,5.5,12.3,12.3c0,6.8-5.5,12.3-12.3,12.3
		C558.1,353.2,552.6,347.6,552.6,340.8L552.6,340.8L552.6,340.8z"/>
	<path class="st0" d="M588.8,340.8c0-6.8,5.5-12.3,12.3-12.3c6.8,0,12.3,5.5,12.3,12.3c0,6.8-5.5,12.3-12.3,12.3
		C594.3,353.2,588.8,347.6,588.8,340.8L588.8,340.8z"/>
	<path class="st1" d="M588.8,340.8c0-6.8,5.5-12.3,12.3-12.3c6.8,0,12.3,5.5,12.3,12.3c0,6.8-5.5,12.3-12.3,12.3
		C594.3,353.2,588.8,347.6,588.8,340.8L588.8,340.8L588.8,340.8z"/>
	<path class="st0" d="M661.1,340.8c0-6.8,5.5-12.3,12.3-12.3c6.8,0,12.3,5.5,12.3,12.3c0,6.8-5.5,12.3-12.3,12.3
		C666.6,353.2,661.1,347.6,661.1,340.8L661.1,340.8z"/>
	<path class="st1" d="M661.1,340.8c0-6.8,5.5-12.3,12.3-12.3c6.8,0,12.3,5.5,12.3,12.3c0,6.8-5.5,12.3-12.3,12.3
		C666.6,353.2,661.1,347.6,661.1,340.8L661.1,340.8L661.1,340.8z"/>
	<path class="st0" d="M697.3,340.8c0-6.8,5.5-12.3,12.3-12.3c6.8,0,12.3,5.5,12.3,12.3c0,6.8-5.5,12.3-12.3,12.3
		C702.8,353.2,697.3,347.6,697.3,340.8L697.3,340.8z"/>
	<path class="st1" d="M697.3,340.8c0-6.8,5.5-12.3,12.3-12.3c6.8,0,12.3,5.5,12.3,12.3c0,6.8-5.5,12.3-12.3,12.3
		C702.8,353.2,697.3,347.6,697.3,340.8L697.3,340.8L697.3,340.8z"/>
	<path class="st0" d="M733.4,340.8c0-6.8,5.5-12.3,12.3-12.3c6.8,0,12.3,5.5,12.3,12.3c0,6.8-5.5,12.3-12.3,12.3
		C738.9,353.2,733.4,347.6,733.4,340.8L733.4,340.8z"/>
	<path class="st1" d="M733.4,340.8c0-6.8,5.5-12.3,12.3-12.3c6.8,0,12.3,5.5,12.3,12.3c0,6.8-5.5,12.3-12.3,12.3
		C738.9,353.2,733.4,347.6,733.4,340.8L733.4,340.8L733.4,340.8z"/>
	<path class="st0" d="M560.5,309.6c0-6.8,5.5-12.3,12.3-12.3c6.8,0,12.3,5.5,12.3,12.3c0,6.8-5.5,12.3-12.3,12.3
		C566,322,560.5,316.4,560.5,309.6L560.5,309.6z"/>
	<path class="st1" d="M560.5,309.6c0-6.8,5.5-12.3,12.3-12.3c6.8,0,12.3,5.5,12.3,12.3c0,6.8-5.5,12.3-12.3,12.3
		C566,322,560.5,316.4,560.5,309.6L560.5,309.6L560.5,309.6z"/>
	<path class="st0" d="M596.6,309.6c0-6.8,5.5-12.3,12.3-12.3c6.8,0,12.3,5.5,12.3,12.3c0,6.8-5.5,12.3-12.3,12.3
		C602.1,322,596.6,316.4,596.6,309.6L596.6,309.6z"/>
	<path class="st1" d="M596.6,309.6c0-6.8,5.5-12.3,12.3-12.3c6.8,0,12.3,5.5,12.3,12.3c0,6.8-5.5,12.3-12.3,12.3
		C602.1,322,596.6,316.4,596.6,309.6L596.6,309.6L596.6,309.6z"/>
	<path class="st0" d="M668.9,309.6c0-6.8,5.5-12.3,12.3-12.3c6.8,0,12.3,5.5,12.3,12.3c0,6.8-5.5,12.3-12.3,12.3
		C674.4,322,668.9,316.4,668.9,309.6L668.9,309.6z"/>
	<path class="st1" d="M668.9,309.6c0-6.8,5.5-12.3,12.3-12.3c6.8,0,12.3,5.5,12.3,12.3c0,6.8-5.5,12.3-12.3,12.3
		C674.4,322,668.9,316.4,668.9,309.6L668.9,309.6L668.9,309.6z"/>
	<path class="st0" d="M705.1,309.6c0-6.8,5.5-12.3,12.3-12.3c6.8,0,12.3,5.5,12.3,12.3c0,6.8-5.5,12.3-12.3,12.3
		C710.6,322,705.1,316.4,705.1,309.6L705.1,309.6z"/>
	<path class="st1" d="M705.1,309.6c0-6.8,5.5-12.3,12.3-12.3c6.8,0,12.3,5.5,12.3,12.3c0,6.8-5.5,12.3-12.3,12.3
		C710.6,322,705.1,316.4,705.1,309.6L705.1,309.6L705.1,309.6z"/>
	<path class="st0" d="M741.2,309.6c0-6.8,5.5-12.3,12.3-12.3c6.8,0,12.3,5.5,12.3,12.3c0,6.8-5.5,12.3-12.3,12.3
		C746.7,322,741.2,316.4,741.2,309.6L741.2,309.6z"/>
	<path class="st1" d="M741.2,309.6c0-6.8,5.5-12.3,12.3-12.3c6.8,0,12.3,5.5,12.3,12.3c0,6.8-5.5,12.3-12.3,12.3
		C746.7,322,741.2,316.4,741.2,309.6L741.2,309.6L741.2,309.6z"/>
	<path class="st0" d="M521.1,372.1c0-6.8,5.5-12.3,12.3-12.3c6.8,0,12.3,5.5,12.3,12.3c0,6.8-5.5,12.3-12.3,12.3
		C526.6,384.4,521.1,378.9,521.1,372.1L521.1,372.1z"/>
	<path class="st1" d="M521.1,372.1c0-6.8,5.5-12.3,12.3-12.3c6.8,0,12.3,5.5,12.3,12.3c0,6.8-5.5,12.3-12.3,12.3
		C526.6,384.4,521.1,378.9,521.1,372.1L521.1,372.1L521.1,372.1z"/>
	<path class="st0" d="M557.3,372.1c0-6.8,5.5-12.3,12.3-12.3c6.8,0,12.3,5.5,12.3,12.3c0,6.8-5.5,12.3-12.3,12.3
		C562.8,384.4,557.3,378.9,557.3,372.1L557.3,372.1z"/>
	<path class="st1" d="M557.3,372.1c0-6.8,5.5-12.3,12.3-12.3c6.8,0,12.3,5.5,12.3,12.3c0,6.8-5.5,12.3-12.3,12.3
		C562.8,384.4,557.3,378.9,557.3,372.1L557.3,372.1L557.3,372.1z"/>
	<path class="st0" d="M593.4,372.1c0-6.8,5.5-12.3,12.3-12.3c6.8,0,12.3,5.5,12.3,12.3c0,6.8-5.5,12.3-12.3,12.3
		C598.9,384.4,593.4,378.9,593.4,372.1L593.4,372.1z"/>
	<path class="st1" d="M593.4,372.1c0-6.8,5.5-12.3,12.3-12.3c6.8,0,12.3,5.5,12.3,12.3c0,6.8-5.5,12.3-12.3,12.3
		C598.9,384.4,593.4,378.9,593.4,372.1L593.4,372.1L593.4,372.1z"/>
	<path class="st0" d="M665.7,372.1c0-6.8,5.5-12.3,12.3-12.3c6.8,0,12.3,5.5,12.3,12.3c0,6.8-5.5,12.3-12.3,12.3
		C671.2,384.4,665.7,378.9,665.7,372.1L665.7,372.1z"/>
	<path class="st1" d="M665.7,372.1c0-6.8,5.5-12.3,12.3-12.3c6.8,0,12.3,5.5,12.3,12.3c0,6.8-5.5,12.3-12.3,12.3
		C671.2,384.4,665.7,378.9,665.7,372.1L665.7,372.1L665.7,372.1z"/>
	<path class="st0" d="M701.9,372.1c0-6.8,5.5-12.3,12.3-12.3c6.8,0,12.3,5.5,12.3,12.3c0,6.8-5.5,12.3-12.3,12.3
		C707.4,384.4,701.9,378.9,701.9,372.1L701.9,372.1z"/>
	<path class="st1" d="M701.9,372.1c0-6.8,5.5-12.3,12.3-12.3c6.8,0,12.3,5.5,12.3,12.3c0,6.8-5.5,12.3-12.3,12.3
		C707.4,384.4,701.9,378.9,701.9,372.1L701.9,372.1L701.9,372.1z"/>
	<path class="st0" d="M738.1,372.1c0-6.8,5.5-12.3,12.3-12.3c6.8,0,12.3,5.5,12.3,12.3c0,6.8-5.5,12.3-12.3,12.3
		C743.6,384.4,738.1,378.9,738.1,372.1L738.1,372.1z"/>
	<path class="st1" d="M738.1,372.1c0-6.8,5.5-12.3,12.3-12.3c6.8,0,12.3,5.5,12.3,12.3c0,6.8-5.5,12.3-12.3,12.3
		C743.6,384.4,738.1,378.9,738.1,372.1L738.1,372.1L738.1,372.1z"/>
	<path class="st0" d="M774.2,372.1c0-6.8,5.5-12.3,12.3-12.3c6.8,0,12.3,5.5,12.3,12.3c0,6.8-5.5,12.3-12.3,12.3
		C779.7,384.4,774.2,378.9,774.2,372.1L774.2,372.1z"/>
	<path class="st1" d="M774.2,372.1c0-6.8,5.5-12.3,12.3-12.3c6.8,0,12.3,5.5,12.3,12.3c0,6.8-5.5,12.3-12.3,12.3
		C779.7,384.4,774.2,378.9,774.2,372.1L774.2,372.1L774.2,372.1z"/>
	<g>
		<path class="st2" d="M148,602.3c-1.5-18.3-11.2-27.3-30-27.3c-14.2,0-28.7,7.5-28.7,23.3c0,19.6,17.5,21.8,33.4,24.9
			c27.6,7,67.9,14.8,67.9,51.2c0,41.8-33.6,58.2-69.6,60.3h-16.3c-35.3-2-59.8-17.6-60.8-56.2v-5.3h39.3
			c-1.5,20.1,10,33.6,30.2,33.6c15.6,0,36.3-4.7,36.3-24c0-21.2-26-22.7-41.6-26.7c-25.4-6.2-59.7-17.7-59.7-49.7
			c0-41.2,37.8-59.6,75.1-59.6c35.2,0,62.3,19.1,62.3,55.3L148,602.3L148,602.3z"/>
		<path class="st2" d="M276.2,734.6c36.7-2.9,58.4-29.1,58.4-66.2c0-39.4-24.5-66.5-65.3-66.5c-40.8,0-65.3,27.1-65.3,66.5
			c0,37.2,21.7,63.3,58.4,66.2H276.2L276.2,734.6z M242.7,668.4c0-20,3.7-41.4,26.6-41.4c22.9,0,26.6,21.5,26.6,41.4
			c0,20-3.7,41.4-26.6,41.4C246.5,709.8,242.7,688.3,242.7,668.4L242.7,668.4L242.7,668.4z"/>
		<path class="st2" d="M419.3,571.8c-26.5-3-27,9-26,33.6H416v25.1h-22.7v100.8h-37.5V630.5h-18.7v-25.1h18.7
			c-1-35.6,2.3-58.7,43-58.7c6.7,0,13.7,0.8,20.5,1.8V571.8L419.3,571.8z"/>
		<path class="st2" d="M450.7,605.4v-24.8l37.5-13.5v38.4h28.2v25.1h-28.2v58.3c0,16.5,2.5,21,15.5,21c4,0,8-0.5,12-0.7v22.1
			c-3.2,1.5-15.7,2.9-23.7,3.5h-12.1c-23.8-2.2-29.1-17.1-29.1-42.3v-61.8h-25.2v-25.1H450.7L450.7,605.4z"/>
		<path class="st2" d="M552.9,605.4v-24.8l37.5-13.5v38.4h28.2v25.1h-28.2v58.3c0,16.5,2.5,21,15.5,21c4,0,8-0.5,12-0.7v22.1
			c-3.2,1.5-15.7,2.9-23.7,3.5H582c-23.8-2.2-29.1-17.1-29.1-42.3v-61.8h-25.2v-25.1H552.9L552.9,605.4z"/>
		<path class="st2" d="M694.1,734.6c25.7-1.8,45.9-12.9,48.9-41h-33.7c-3.5,11.4-10.1,16.2-23.2,16.2c-19.4,0-21.6-15.2-21.6-31.3
			H747c0-8.3,0-16.3-1-24.1c-1-8-2.7-15.5-6.2-22.4c-10.5-22-30-30.1-53.6-30.1c-38.4,0-60.4,29.1-60.4,66.8
			c0,39.3,15.2,63.2,52.8,65.9H694.1L694.1,734.6z M664.5,653.3c0.5-13.7,4.3-26.4,21.6-26.4c18.4,0,22.2,12.7,22.2,26.4H664.5
			L664.5,653.3L664.5,653.3z"/>
		<polygon class="st2" points="800,656.4 800.5,656.9 837.5,604.1 879.2,604.1 836,659.2 882,731.3 838.2,731.3 800.5,662.4 
			800,662.9 800,731.3 762.6,731.3 762.6,550.4 800,550.4 800,656.4 		"/>
		<path class="st2" d="M650.2,278.5c0-6.8,5.5-12.3,12.3-12.3c6.8,0,12.3,5.5,12.3,12.3c0,6.8-5.5,12.3-12.3,12.3
			C655.7,290.8,650.2,285.3,650.2,278.5L650.2,278.5z"/>
		<path class="st2" d="M648.1,527.6c0-6.8,5.5-12.3,12.3-12.3c6.8,0,12.3,5.5,12.3,12.3c0,6.8-5.5,12.3-12.3,12.3
			C653.6,539.9,648.1,534.4,648.1,527.6L648.1,527.6z"/>
		<path class="st2" d="M676,465.5c0-6.8,5.5-12.3,12.3-12.3c6.8,0,12.3,5.5,12.3,12.3s-5.5,12.3-12.3,12.3
			C681.5,477.8,676,472.3,676,465.5L676,465.5z"/>
		<path class="st2" d="M667.5,496.5c0-6.8,5.5-12.3,12.3-12.3c6.8,0,12.3,5.5,12.3,12.3c0,6.8-5.5,12.3-12.3,12.3
			C673,508.9,667.5,503.4,667.5,496.5L667.5,496.5z"/>
		<path class="st2" d="M651.7,403.2c0-6.8,5.5-12.3,12.3-12.3c6.8,0,12.3,5.5,12.3,12.3c0,6.8-5.5,12.3-12.3,12.3
			C657.2,415.5,651.7,410,651.7,403.2L651.7,403.2z"/>
		<path class="st2" d="M670.5,434.2c0-6.8,5.5-12.3,12.3-12.3c6.8,0,12.3,5.5,12.3,12.3c0,6.8-5.5,12.3-12.3,12.3
			C676,446.5,670.5,441,670.5,434.2L670.5,434.2z"/>
		<path class="st2" d="M624.9,340.8c0-6.8,5.5-12.3,12.3-12.3c6.8,0,12.3,5.5,12.3,12.3c0,6.8-5.5,12.3-12.3,12.3
			C630.4,353.2,624.9,347.6,624.9,340.8L624.9,340.8z"/>
		<path class="st2" d="M632.8,309.6c0-6.8,5.5-12.3,12.3-12.3c6.8,0,12.3,5.5,12.3,12.3c0,6.8-5.5,12.3-12.3,12.3
			C638.3,322,632.8,316.4,632.8,309.6L632.8,309.6z"/>
		<path class="st2" d="M629.6,372.1c0-6.8,5.5-12.3,12.3-12.3c6.8,0,12.3,5.5,12.3,12.3c0,6.8-5.5,12.3-12.3,12.3
			C635.1,384.4,629.6,378.9,629.6,372.1L629.6,372.1z"/>
		<path class="st2" d="M899,577.2L899,577.2L899,577.2c0-7.8,3.1-14.8,8.2-19.9c5.1-5.1,12.1-8.3,19.8-8.3v0h0h0v0
			c7.7,0,14.7,3.2,19.8,8.3c5,5.1,8.2,12.2,8.2,19.9h0v0v0h0c0,7.8-3.1,14.9-8.2,20c-5.1,5.1-12,8.3-19.8,8.3v0h0h0v0
			c-7.7,0-14.7-3.2-19.8-8.3C902.1,592,899,585,899,577.2L899,577.2L899,577.2L899,577.2z M903.9,577.2L903.9,577.2L903.9,577.2
			L903.9,577.2L903.9,577.2c0,6.4,2.6,12.3,6.8,16.5c4.2,4.2,9.9,6.8,16.3,6.8v0h0h0v0c6.3,0,12.1-2.6,16.3-6.8
			c4.2-4.2,6.7-10,6.7-16.5h0v0v0h0c0-6.4-2.6-12.2-6.7-16.4c-4.2-4.2-9.9-6.8-16.3-6.8v0h0h0v0c-6.3,0-12.1,2.6-16.3,6.8
			C906.5,564.9,903.9,570.8,903.9,577.2L903.9,577.2z"/>
		<path class="st2" d="M921.9,574.7h3.8c2.5,0,4-0.1,4.6-0.3c0.6-0.2,1.1-0.6,1.4-1.1c0.4-0.6,0.6-1.2,0.6-2c0-0.9-0.2-1.6-0.7-2.1
			c-0.5-0.5-1.1-0.9-2-1c-0.4,0-1.7-0.1-3.8-0.1h-4V574.7L921.9,574.7L921.9,574.7z M916.7,589.6v-25.8h10.9c2.7,0,4.7,0.2,6,0.7
			c1.2,0.5,2.2,1.3,3,2.5c0.8,1.2,1.1,2.5,1.1,4.1c0,2-0.6,3.5-1.7,4.8c-1.1,1.2-2.8,2.1-5,2.4c1.1,0.7,2,1.4,2.7,2.2
			c0.7,0.8,1.7,2.2,2.9,4.2l3.1,5h-6.2l-3.7-5.7c-1.3-2-2.2-3.2-2.7-3.8c-0.5-0.5-1-0.9-1.6-1.1c-0.5-0.2-1.4-0.3-2.6-0.3h-1v10.8
			H916.7L916.7,589.6z"/>
	</g>
</g>
</svg>
